<?xml version="1.0" encoding="UTF-8"?><svg id="Layer_1" xmlns="http://www.w3.org/2000/svg" viewBox="0 0 1499.86958 534.17139"><defs><style>.cls-1{fill:#5c1835;}.cls-2{fill:#344944;}</style></defs><path class="cls-2" d="M84.00545,144.69603h.22118c-.46574-.3776-1.106-.6294-1.52509-.77319v-.054s-.09703.1798-.1708.30581c.39208.2158.85958.3956,1.47471.52139Z"/><path class="cls-1" d="M37.11915,155.0011c2.16525,2.24801,5.01928,5.95262,8.51182,5.86283,2.87741-.73741,3.63996-5.28744,6.66665-5.59325,3.91163-1.2588,5.78018.64762,8.14322,2.94942.98372.79141,1.74627,1.40281,1.62223,2.24801-.71216,2.41003-4.3036,4.08242-4.72269,6.65425-.54126,2.42781-1.94407,4.60381-2.75513,6.70803.12228,2.46381,3.71548,3.56082,5.55889,6.09663,4.52654,5.89883,5.46175-3.70483,9.74197-2.23001,2.26415,1.7264,2.48544,6.95983,5.56065,7.85904,3.73897.8812,7.67386-3.56082,11.48648-2.21201,3.64182,1.20479,4.67406,5.86261,9.15208,6.27643,2.38654.3956,4.99414.10779,6.93645-.95321,3.24798-2.10422,3.3954-7.24764,7.55334-8.23663,1.15639-.39582,3.6652-.86342,2.58247,1.16879-.96034,1.07922-1.77141,2.35602-2.33791,3.74083.5665.2518.98559.53939,1.08262,1.34881l-1.4746.1978s-.05038-.14401-.07376-.2158c-.81293,2.66161-.5665,5.46701,1.86855,7.69724,3.02669,2.5176,9.24923,2.44581,11.63565-1.13301,1.55023-2.28401,2.09159-3.86662,2.4603-2.35602.22118,1.2588.29494,3.95641-.88483,5.53902-.88669,1.29502-2.51057,2.21223-3.66696,3.21922-.3687.4496-.71216.93521-1.03235,1.47482l.22118.10779c.12239-.054.09901-.48561.32019-.71941.29494-.2338,1.67251-1.18679,1.91893-1.15101,1.59874.2518,3.27125,2.19423,2.14,3.52503-.22118.2158-.88658.07179-.98372.95299.61513.26981,1.7949,1.52882,1.84517,2.24801.02338,1.15101-1.35419.19802-1.69764.62962-.88658-.2158-3.78924-1.87042-4.05904-1.81641-.14742.05379-.12404.53939-.32008.71941-.44247.34159-.93521.30559-1.47646.14379-.41722,1.4746-.73741,3.0212-.91007,4.38801,3.07532,7.24764,15.30086,3.11143,19.18724-1.2408,1.37757-1.69062,1.47646-3.95663,2.33791-5.88083l-.0989-.054c-1.45133-.28759-3.63996-3.32701-5.68292-2.5356l-2.5322-1.42081c1.08087-.79141,1.69589.14379,2.45843.2338.39384.07201,1.64913-.8272,2.04297-.77341.49098.09001,2.31277.95321,2.85227,1.27702.14928.07179.0989.5934.24643.6654.68878.35959,1.2049.53939,1.72289.75519,1.45133-2.14,3.9349-5.95262,3.63996-2.19401-.02514.8992-.34346,1.90642-.81106,2.93142,1.23015.53961,1.79479,1.9422.98372,3.27301-.81106-.1978-.73741-.8092-1.47646-1.20479l-.51623-.2158c-2.95117,5.01741-7.82304,10.35885-.32008,12.85867,3.41878,2.42781.0989,6.74403-1.32905,9.36964-.66354,1.36681-.31832,2.76962.49285,4.04642,2.0411,3.70461,5.0679,9.26185,9.96315,6.15064,2.36129-1.96042,4.32874-4.94563,6.05163-7.82326.0989-.1978.17266-.3776.26981-.4316.32008-.55739.6654-1.097.96034-1.61861l-.19791-.08979c-.41722,2.06821-2.77851.26981-2.99969.34159-.07376.018-.49274,1.25902-1.35419,1.07922-1.8938-.2518-.68878-1.27702-.73741-1.47482-.07365-.2338-1.59874-1.16901-1.91882-1.40281-1.05749-.91721.78768-4.33401,2.36129-4.06442.66365.12601,1.59874.8812,2.36129,1.06122.14753.07179.83631-.52161,1.62399.1618.2697.2338,1.27867,1.65462,1.42608,1.79841.29681.12579.5665.2518.83631.4496,1.25529-1.3128,3.3954-1.7444,4.1327-3.27301.83806-1.65462.93521-4.55003,3.14908-6.07863,1.13301-1.16901,2.63285-1.79841,4.15783-2.14022l-1.18152-.52161.64027-1.40259,1.4027.6294-.54126,1.2408c1.55023-.34159,3.05007-.4676,4.35388-.50339,1.52509-.10801,3.17422-1.96042,4.55178-3.11143,1.52509-1.097,3.0987-2.03221,4.28022-3.25501-1.25529.054-2.80551,1.13301-3.34677.71941-.17091-1.13301-1.40095-.98921-2.16349-1.51082-.59175-.4496-1.40281-.98899-2.16536-1.4926-.1978-.10779-.04852-.95321-.96034-.98921l.86145-1.9242c1.13125.6114,2.48544.98921,3.54292,1.58261.44236.1978,1.2049,1.4926,2.6311,1.7084.39384.09001,1.23004-.8632,1.84517-.30559.37046.26981.64016.57539.9351.75519.12415-.28759.34532-.52139.4676-.8272,4.6003-13.03847,5.19018-8.39865,9.12695-7.17564-.0989-.1618-.29494-.32381-.58988-.26981l.85958-1.9242c.61513.57539,1.30391.05379,1.37768.07179.14742.07201.0989.59362.24632.6654.41909.26981,1.18163.77341,2.06635,1.24102.66365-.2518,1.32905-.57561,2.14011-.98921,3.10046-1.78041,5.24057-5.35922,8.53706-6.65403,2.6311-1.13301,5.53375,2.176,7.74763,1.7084,5.56065-1.16879,9.56931-3.07521,13.97356-6.94183l.56475-1.2588.14928.07179c.71216-1.38459,1.17977-2.87741,2.26239-3.66861,1.3038-1.00721,3.83776-1.079,5.78007-1.92442,1.69764-.55739,2.95293-.1978,4.20646.79141.6654.53939,1.55023,1.13301,2.33791,1.5286,4.87011.75541,6.32143-5.68303,9.22409-8.59645,2.75513-2.40981,5.51026-5.01741,8.24212-7.55323l-.61513.34159c-3.2965-1.8882-7.7979-2.93142-10.89836-4.87362-.41722-.26981-.90996-.77341-.86145-1.2408.05038-.26981.39384-1.29502.76255-1.04322,2.06635.80942,4.05904,1.90642,6.17577,2.75162,1.59874.6114,4.5014,1.76241,6.39509,2.32002.0989.03578.61513-.16201,1.13125-.10801,2.60772-2.46381,5.21532-5.01763,7.726-7.49945l.46574-.46738c1.87031-1.60061,2.95304-3.65082,2.80551-6.97784l.22118-.07201c.76255-5.25143-.12228-10.86246,1.82003-16.02389,1.62399-4.99963-2.18863-6.25843-6.593-5.79082-1.47471-.12579-2.6311.054-3.51768.2518l.17266.1978-.64027,1.40281c-.66365-.55761-1.25342.036-1.77141-.2518-2.38467,3.0032.6654,9.22585-5.28733,11.15005-5.28908,1.65462-7.97056-5.55702-13.13737-5.14342-3.5663.09001-5.85383,4.80183-8.63421,5.88083.98372-1.4926,2.23901-4.22622,2.95117-6.34844,3.2965-5.21543,3.83786-8.07484,6.07688-13.39806,4.28022-5.52124,2.31277-8.52444-2.43505-12.67887-2.04121-2.19401-6.24943-4.13621-8.63421-1.61861-1.32894,1.76263-1.84517,4.53203-3.44391,6.16864-1.91893,2.12222-5.36285,3.86662-6.66665,6.86983-1.87042,6.16864-6.44558,6.79804-8.31589,12.30128-.39208.8992-.88483,1.9602-1.57361,2.69761-.66365.57539-1.52509.53939-2.31277.30559-3.56619-1.9602-6.42033-.8632-10.57828-.8452-3.59133.52161-6.27281,3.81262-9.0028,5.34122-2.63285,1.3128-3.81262,3.77683-5.87897,5.26944-5.01939,2.51782-9.05319-5.01763-4.72445-8.20085,1.50171-1.025,3.44391-1.8702,4.33061-3.54281,1.03224-2.08622,1.00886-4.85562,1.3038-7.31943l-.61502-.26981c-.1978-.09001-.12415-.53961-.24643-.6654-.2697-.2158-.71392-.1978-.95848-.4136-.27156-.2158-.39395-1.15101-1.47657-1.20501l.64027-1.40281c.51612.75541,1.94231,1.60061,3.07345,2.05021.44422-1.58261,1.30391-2.96742,3.05194-3.70461,1.13114-.59362,1.99259-1.34881,2.68137-2.19423-1.47646-.48539-3.24787-1.20479-4.82324-.6294l-4.96901-2.21201c1.034-1.18701-.73741-1.9242-.78593-2.05021-.05038-.14379,1.32718-3.21922,1.57361-3.54281.17266-.2338,1.57536-.52161,2.04121-.79141.14917-.08979.34521-.75519,1.23004-.8632.64027-.07179,2.38654-.5934,2.48544-.5934.71392.14379,1.32905.97121,2.06635.3776.24643.82742.93521,1.56461.32019,2.42781-.64027-.5934-1.03411-.01778-1.37768-.07179-.29494,0-.61502-.3956-.96034-.4136-.2697-.054-3.51768,1.115-4.28022,1.2588l-1.49985,2.158c.24643,1.51082,1.52509,2.57182,3.02494,2.76962.27156.036,1.10787-.55739,1.37757-.55739.5665.08979,1.28053.77319,1.87042.8452.2697.054,1.106-.53961,1.4027-.53961.44247.07201,1.96745.34181,2.06635.35981l.09714.05379c.14742-.6114.24643-1.2228.1978-1.9602.17091-2.5716.24456-5.91684-2.14011-7.33743-1.84517-.77341-4.6003-1.25902-6.44547-2.17622-2.26415-1.2948-3.27125,1.87042-4.42764,3.79484-1.05749,1.7264-2.90266,2.158-4.82159,2.24801-3.51768.10779-8.41292-.35981-10.13581,3.48881-1.05749,3.95641-5.26395,6.33044-8.56045,8.18285-.78768.35959-.88658.03578-.51612-1.29502,2.70475-5.48502.7373-10.35885-5.53551-11.29384-9.12695-.37782-12.07812,10.88024-18.7934,15.43027-1.94407,1.5106-4.28198,2.26601-5.90421,4.11843-1.82179,2.46381-2.04297,4.99941-4.7981,5.75482-.41722.10801-.81106.32381-1.2049.52161.04852-.09001.17255-.09001.27156-.16201,2.53209-2.69761,2.31091-6.70803,4.15608-9.76524,1.13125-2.15822,2.87928-3.88463,4.92049-4.90962,1.13114-.6474,2.43505-1.36681,2.38643-2.76962-.4676-3.99242-5.97787-4.42402-9.07832-5.80883-2.82889-1.25902-4.52665.79119-6.69014,2.48181-6.15053,1.83441-8.733,5.46723-12.66976,10.26885-1.52509,3.39902-2.75513,5.64703-5.60741,7.94905-1.89555,2.3198-4.03566,4.53203-7.11098,5.05342-2.95117,1.60061-5.75482,3.81262-8.24026,6.06063-1.00897,1.20501-1.40281,4.62203-3.46916,4.33423.34532.26981.59175.5934.54137.98921-.12228.8092-2.21387.8272-2.14011,2.21201l2.06635,1.76241c-.95859.3776-1.77141.98921-2.65623.2338-.54137-.4136-.02525-1.85241-.5665-2.57182-.17091-.1978-.6384-.1618-.71216-.30559-.1978-.52161,1.13114-2.05021,1.74627-2.85963-1.42619-.77319-1.77152-2.104-2.72999-4.71182-1.20677-2.7334-5.21543-2.7514-6.91307-4.83762-1.37757-1.40281-2.23901-3.66882-4.23171-4.38823-2.33615-.8632-5.55889-.6114-7.77276.53961-1.99259,1.061-1.87031.07201-3.64171-2.32002-9.20071-8.36243-11.8317,3.11143-15.00592,9.65745-3.59144,4.40623-9.86425,11.07826-5.09128,16.88709h.12228l.07376-.07179ZM173.87015,207.47855l1.40095.6294-.41722.97121c-.78768-.1798-.86145-.6474-1.10787-1.36681l.09901-.2338h.02514ZM273.42467,147.53765l3.05007.8092-1.03224,2.35602-2.65623-1.72662.6384-1.4386ZM271.40871,127.84494l1.40095.64762-.19604.4316-1.40281-.62962.19791-.4496ZM255.54124,154.40748c-.90996-.28759-1.37757-.6114-1.55023-1.54661l.09901-.2518,1.86855.84542-.41733.95299ZM261.12537,136.87299c.3687-.10779,1.23004,1.04322,1.08262,1.36681-.39384.8632-2.04297-.054-1.08262-1.36681ZM254.16367,146.04483c-1.52498.82742-3.37015-.34159-2.53395-1.99621,1.17977.52161,2.31277.6654,2.53395,1.99621ZM157.65933,220.17543s-.81293-1.45682-.98559-1.60061c-.7373-.6294-2.40981-.59362-1.49985-2.35602.88483.30581,1.72102.8812,2.63285,1.16901.14742.09001.51612-.30581.66365-.2338,1.42608.34181,2.55733,1.36681,3.02494,2.75162-1.45133.52161-2.43505,1.34881-3.836.28781v-.018ZM169.17084,205.91395c-.90996-.10779-1.42608-2.64361-2.46019-2.8054l.64027-1.40281c1.05749.6474,5.09128,1.6724,4.89524,3.05721-.14742,1.00721-2.31277.98921-3.07532,1.18701v-.036ZM185.65333,195.06949l.41722-.97099c.93521.32359,1.62399.71941,1.42795,1.79841l-1.87042-.82742h.02525ZM193.32895,179.08182l.24456.10779.39384,1.025-1.27867.28781.64027-1.42059ZM201.79038,191.32887v.07201s-.8362-1.49282-.95848-1.60061c-2.19049-1.65462-3.56806,1.025-4.40437.8812-.76244-.10801-1.79479-.91721-2.63285-1.18701.27156-1.81641,1.79665.1978,2.60772-.8272.93521-1.115.05038-2.30202-1.13125-2.51782l.64027-1.40281c.61513.39582,1.59885.53961,2.14011.95321.14753.07201.86145,1.4926.98372,1.60061,1.91893,1.40281,3.05007.50361,4.23171.73741,1.49985.30559,2.23714,1.115,2.55733,2.5716-1.17977,1.60061-2.36129,1.99621-4.03391.75541v-.036ZM211.65474,178.09261c-.56475-1.83441-2.78038-4.10043-4.03391-1.7264l1.74627,1.097-2.18863.4136-.96034-.4136c-.32008-1.63661-2.31277-1.115-2.85414-1.27702-.85958-.28759-1.74616-.8452-2.63099-1.18679l1.79479-.8812c.68878.6474,2.58434.6114,3.17422,0,.41722-.55761-.0989-1.02522,0-1.16901.07365-.14401.54126-.12601.66354-.2518.22129-.26981.19791-.70141.44247-.95321.64027-.75519,2.60772.12601,3.42053.6654.14753.07201.07376.52161.24643.6654.19604.1978.6384.1798.71216.32381.05038.14379-.32008.4676-.32008.71941.0989,1.36681,3.61658,3.11121.8362,4.01042l-.04852-.036ZM213.40101,160.93571c1.08262-.79119,1.62388.054,2.46019.2518.1978.09001.4676-.26981.66365-.2518.64016.10801,1.42784.8812,1.35419,1.47482-.24643,1.9062-4.94563-.4316-4.45288-1.45682l-.02514-.018ZM217.13987,169.15457l-1.40095-.62962.41722-.97099c.49274.3956.41898.98899,1.20677,1.097l-.22304.50361ZM218.24763,161.07973h-.04852s-.76255-1.83441-.41898-2.21223c1.25529-1.4566,5.11642,1.85241,4.01042,3.81262-.96034-.6114-2.78038-.95299-3.54292-1.56461v-.03578ZM228.06336,147.24985l.41722-.97121.44422.19802-.44422.97099-.44236-.1978h.02514ZM235.2211,173.83039c-.29494-.10801-.09714-.57561.1978-.4316.29494.14379.09714.5934-.1978.4316ZM249.12101,140.70361l-.41909.95321c-.71392-.6114-1.35243.1978-1.86855-.28781-.34532-.26981-.44422-1.36681-.0989-1.7264l2.38654,1.061ZM238.7154,151.38628c.49098.6654.81106,1.079,1.67251,1.2768l-.6654,1.4746c-.93334-.05379-1.72113-2.40981-1.0071-2.7514ZM236.59867,156.1341c1.42795.73719,3.07521,1.2588,4.5014,2.01421.78768.4316,1.42795.57539,1.25529,1.7084-1.79479-.8632-3.69034-1.5286-5.46175-2.44581-.76255-.34181-1.2049-1.00721-.29494-1.2768ZM221.96135,176.18619c.71403.55761,1.28053,1.34881,2.06646,1.76263-.26981.8632-1.84341-.2158-2.33615-.48561-.88483-.4676-1.62399-.4496-1.82003-1.67262,1.13125-.6474,1.23015-.32359,2.06635.35981l.02338.03578ZM216.60037,179.20761l1.86855.8272c.41898,1.097-3.83786,1.83441-1.86855-.8272ZM235.02506,136.65719c-.5665,1.51082-1.74627,1.079-3.00156.34181.5665-1.49282,1.74627-1.079,3.00156-.34181ZM230.54704,140.93741c.90996.1618,1.67251.73741,1.82179,1.67262-1.23015.71941-2.53395.12579-2.85414-1.27702.32019-.03578.81106-.4316,1.03235-.3956ZM222.89656,140.30801v.036c1.52509.4496,2.60772,1.2948,4.40437.30559-.09901,1.00721,1.17966,1.58261,1.25342,1.69062.05038.1618-.49098.8452-.51612,1.16901-.04852.26981.54137.73719-.07376,1.36681-.54126-.16201-1.18152-.62962-1.67251-.73741-.1978-.09001-1.00886-.07201-1.62399-.1618-.14742-.07201-1.9422.6294-2.48357.5934l-.44422-.1978-1.69589-3.30901c.12228-.8992,2.11497-.93521,2.87741-.73741l-.02514-.018ZM221.24918,145.34365h-.05027c.71392.3956.64016.98899,1.47646,1.18679l-1.79479.8812-2.80551-.08979c-.4676-1.115-.51623-2.35602.0989-3.38102.98372.53939,2.16525.8632,3.09859,1.38481l-.02338.018ZM208.57942,152.51928c.12415-.80942,1.55023-1.67262,2.11673-1.60061.4676.08979,3.88638,1.61861,4.25509,1.8882,1.15639.93521-.41722,2.03221-1.49995,2.17622-.12404,0-.34521-.2338-.44422-.1978-1.2049.14379-2.16338.48539-3.27125-.32381-.14742-.07201-1.13125-1.65462-1.15639-1.9242v-.054.036ZM209.53977,139.58861c.83631.07201,1.59885,0,2.33615.48561-1.106,1.025-2.23901.93521-3.46729.1618.44236-1.38481.41722-.71919,1.15452-.6474h-.02338ZM195.88628,156.87129c.8362.50361,1.59874-.1978,2.33791.50361.1708.14379.09714.57561.24456.6474,1.30391.8992,3.44402,1.25902,4.77296,2.12222.14753.07179.07376.52139.24643.6654.6384.5934,1.84517.6474,1.05749,2.176-.71403-.57539-1.13125.09001-1.87042-.30581-.76244-.34159-.61502-.8092-.76244-.8812-1.54847-1.061-4.13281-1.4746-5.68117-2.5356-.19791-.10801-.07376-.93521-.96045-.98921l.64027-1.40281h-.02514ZM190.62233,175.6288c-.1978-.09001-.41909-1.22301-1.47646-1.20501v-.036l1.81992-.8992c.39384.4676.91183-.08979,1.15639,0,3.07532.59362,1.82179,4.46024-1.52509,2.17622l.02525-.036ZM186.78447,173.29078l2.06646.37782c.32008.8092-1.79665,1.42059-2.48544.5934l.41898-.97121ZM199.47772,143.59902l-.41722.97121-1.42795-.6474s1.37757-.91721,1.84517-.32381ZM195.6651,152.17747l-.44247.95321-1.4027-.6474.41898-.95321,1.42619.6474ZM198.83921,139.87641l1.40095.6474-.44236.95321c-.78768-.1618-.86145-.6294-1.08262-1.34881l.0989-.2518h.02514ZM179.97029,186.74284c.14753.07201.12239.53961.24643.6654.24643.21602.76255.21602.95859.41382.17266.14379.12404.53939.24632.6654.12228.12579.39384.10779.44247.1978.71392.98899,1.00886,3.07521,1.25529,4.28022-.66365.12579-1.23015,1.2408-1.91893,1.16901-.64027-.10801-1.08262-.73741-1.99259-.036.36859.97099.51612,1.99621,1.59874,2.122.24643.018.51612-.32359.66365-.2518,1.52685.39582,4.01042,1.90642,3.19935,3.74083l-5.1668-1.76241-.04863.08979c-.78768-2.01421-5.70817-1.4926-4.6003-4.35201,1.05749.3776,2.80376.52139,3.22274-.86342l-2.53395-1.99621c1.3038-.55739,2.38654.34181,3.71372-.6654-.14753-1.025-.56475-1.061-1.35243-1.4746-1.23004-.6654-3.22274-1.33081-2.80365-3.25523.85958-.5934,1.15628-.26981,1.99259.036.78593.26981,2.23725.8812,2.85227,1.2768h.02514ZM194.82879,143.83283c.14753.35981-1.05749,1.22301-1.35243,1.07922-.86145-.39582.07376-2.10422,1.35243-1.07922ZM184.47181,161.99693l1.42784.6474-.41898.95299-1.40281-.6474.41909-.95299h-.02514ZM177.53524,180.01681l-.41898.97121-1.40095-.6474s1.37757-.91721,1.84517-.32381h-.02525ZM161.98807,216.111h.04852l-2.18863.4496-1.15639-1.92442,1.69764-.6474,1.59885,2.12222ZM158.49553,212.55019l-.64027,1.42059c-2.33791-.48561-2.95117-3.07521-.0989-2.3558v.07179l1.32905-1.7264c2.43505.6654,1.74627,3.45302-.61502,2.58982h.02514ZM158.10169,208.35976l.19604-.4496.96034.4316-.1978.4316-.95859-.4136ZM173.67235,176.02439l.41898-.95321.44247.1978-.41733.95321-.44411-.1978ZM177.1414,172.08598c-1.00886.6474-1.72102.14379-2.70661-.34181l.64027-1.40281c1.00897.4496,1.87042.59362,2.04121,1.78041l.02514-.03578ZM188.16214,144.80404c-.19604.71941-.83631,1.45682-.95859,2.14-.05038.26981.78593,1.20501-.64027,1.40281-.64027.09001-.98372-.14379-1.52498-.3776.78768-1.4926,1.05738-4.13643,3.09859-3.18322l.02525.018ZM170.69593,177.49921l.96034.4316-.07376,1.36681c-.68878.30559-1.10776.55739-1.74803.08979l.83806-1.9062.02338.018ZM163.26673,199.27792l-2.33615-2.44581c1.82003-1.06122,2.92779.93499,2.33615,2.44581ZM157.63408,178.75801l-.98372.97121v.03578l-1.45133-.6294c.44247-1.00699.58988-1.8702,1.77141-2.06821l.63851,1.69062h.02514ZM161.84054,166.72654l-1.4027-.6474.64016-1.40259c.98383.25158,1.32905,1.20479.78779,2.04999h-.02525ZM168.43354,146.26085c.29494.12579.09714.5934-.1978.4496-.29494-.12601-.09714-.59362.1978-.4496ZM162.60309,157.3929v-.054c.51612.34181.88483.3956,1.40281.07201l.29494,1.2768-1.87042-.8272.19791-.4496-.02525-.018ZM153.22982,183.43383c-.44247,1.2948-1.47471,1.2948-2.48368.59362.44247-1.27702,1.47657-1.27702,2.48368-.59362ZM141.54554,175.35899l.44236-.95321,2.3614,1.06122-.41733.95299-2.38643-1.061ZM140.8819,181.86922l.17091-1.63661,1.87031.84542c-.24643.98899-1.2049,1.33081-2.04121.79119ZM148.53238,169.89176l-.64027,1.40281-.26981-.10779c-.6654-1.25902-.41898-2.19423.88483-1.31302l.02525.018ZM140.46292,197.62331h-.07376l-.44247-.1798c-.36859-.95321-1.62388-1.40281-.81106-2.67961l3.07356.2338c1.18152,2.28401.5665,2.42781-1.72113,2.62561h-.02514ZM146.29337,183.73964l.19593-.4496,1.40281.6474-.19604.4316-1.4027-.6294ZM151.50869,178.36241l-1.59874.98899h.04852c-2.48357.4136-5.43661-1.00699-4.01042-3.79462.64027.59362,1.23015,0,1.37757.07201.7643.2338,2.09159.8632,2.83065,1.2588.78593.4316,1.13125.4496,1.35243,1.47482ZM151.7785,165.71954c.29494.12579.0989.5934-.19604.4316-.29494-.12579-.0989-.5934.19604-.4316ZM153.52652,172.67938l-1.4027-.6294.19593-.4496,1.40281.6294-.19604.4496ZM157.75636,158.0223l.96034.4316-1.4027.53961.41898-.97121h.02338ZM155.81416,161.18752c-.68889,2.14022-4.15794.018-5.58414-.79119-2.11673-1.13301-1.45133-2.66183.39208-2.12222h-.07376c.98559.30581,2.87928,1.20501,3.81448,1.7264.71216.4496.6384,1.00721,1.47471,1.20501l-.02338-.018ZM156.1091,147.03405s.49087-.32359.66354-.2518c1.62399.4316,2.21387,1.85241,3.83786,2.26601l-.64027,1.40281-6.17391-2.76962c.54126-1.61861,1.45133-.8092,2.31277-.6474ZM125.6548,209.61877c-1.52509.8272-3.37026-.34181-2.53395-1.99621,1.17977.52139,2.31277.6654,2.53395,1.99621ZM134.19,168.07535l-1.35232-1.4746c1.27867-.6834,3.88627.26981,3.69034,1.9602l-2.33802-.48561ZM134.31228,177.535c1.9927-1.16879,3.64182-.3956,3.69034,1.96042l-3.69034-1.96042ZM143.04539,162.28452c.83631.07201,1.60061,0,2.33791.50361-.7373,1.79841-2.19038.79119-3.46905.14379.44236-1.38459.41898-.71919,1.13114-.6474ZM137.80669,174.85538c-1.13125-.77319-2.28764-.77319-3.54292-1.043.24643-1.22301-.02514-2.67961,1.77141-2.06821,1.00897.34181,2.50882,1.85241,1.79665,3.11121h-.02514ZM143.26843,155.57649c.71216.6114.02338,1.9602-.34532,2.69761-1.87031-.71941-1.59874-4.35223.34532-2.69761ZM155.86268,113.90727l4.05904,2.35602-.86145,1.9242-3.0987-1.36681c-.41898-.30559-.4676-2.7694-.0989-2.91341ZM152.54104,107.88264c.98548.14401,1.28042,1.47482,2.43681,1.61861l-1.79665.8812h-.04852l-1.91893-1.42081c.07376-.57539.88483-1.18679,1.35243-1.079h-.02514ZM117.43782,171.94197c.91007.52161,2.18874.79141,3.0987,1.38481.14928.07201.0989.5934.24643.6654.86145.6294,2.38643.6294,1.5016,2.35602-1.3038-.8812-3.91152-1.29502-4.94563-2.21201v.05379c-.56464-.4316-.32008-1.6544.12415-2.24801h-.02525ZM92.44362,171.13277c-1.9927-.26981-1.27878-3.00342.0989-2.80562.6654.12601.54126,1.097,1.47646,1.20501-.17266.6294-.81106,1.6904-1.57536,1.60061ZM118.15185,167.15836c-2.26426.57539-4.28022-.07201-3.61658-2.76962l2.82889.70141c2.28753-1.47482,3.17235,1.4386.78768,2.05021v.018ZM118.71648,149.24606v-.054l2.16536.95321-.86145,1.92442-2.53395-1.99621,1.23004-.86342v.036ZM104.59726,180.26861c.8362-1.043.36859-2.05021.41722-2.122.07365-.14401,1.23004-.18002.73917-1.67262l2.21376,2.14022c.41722.6654.88483,2.64361.09714,2.91341,0,0-.46585-.32381-.71216-.32381-1.40281.1618-2.58434,1.56461-2.73175,1.61861-.22129.07201-1.54847-.8812-2.14011-.95321-.26981-.054-1.10611.53961-1.40106.53961-2.11662-.26981-1.94407-4.08242.73741-4.24422.76255.10779,1.32905,3.83062,2.78038,2.104ZM119.25785,136.0998c1.25529-1.20501,2.97631-2.10422,4.55178-3.09343-2.09159,2.10422-3.46916,5.37745-5.73155,6.56424-1.15639.55761-.91183-1.9242,1.17977-3.47081ZM112.56771,146.44065c1.00721.14379,1.00721.73719,1.35243,1.4746,1.67251,3.59682-3.27125,1.87042-3.00156.34181.12415-.6654.86145-1.92442,1.67251-1.81641h-.02338ZM94.21502,184.45905c-.88483-.77341-2.11497-.036-2.82889-.71941,0,0-.07376-.52161-.24643-.6654-.19604-.1978-.6384-.1798-.71216-.32381-.05038-.14379.29494-.4136.32008-.71941.02338-.48539-.59164-2.7514-.46749-2.7514,2.31266.79119,5.31246,2.3558,3.96003,5.17943h-.02514ZM102.57943,145.97305c1.13114.1978,2.18863,1.4746,2.55909,2.5536-2.09148.75541-3.81437.41382-4.25684-1.8882.4676-.10801,1.40281-.71941,1.69775-.6474v-.018ZM87.81983,170.79096l-.64016,1.40281-2.6311-1.7264,3.27125.32359ZM83.3418,180.68221l-.1708,1.61861c-1.05935-.036-1.23015-1.025-1.47657-1.20479h.04863c-.78593-.61162-2.18874-1.36681-3.12384-1.90642l-.73741-1.4926c2.18874.70141,3.31988,2.39181,5.45999,2.9852ZM89.37005,142.89762l2.36129,1.04322-.41898.97121-2.38654-1.06122.44422-.95321ZM69.39513,170.55716c2.65623.77341,4.15619.4496,7.05873,1.99643,1.94407,1.061,1.67251,2.5176-.41722,2.122h.07376c-.78768-.1978-4.05904-.6114-4.23171-.75541-.86134-.6654-1.32894-.97099-2.16525-1.5106-.24456-.1798-.41722-1.2228-1.47471-1.20479-.4676-.98921.44247-.84542,1.15639-.64762Z"/><path class="cls-2" d="M283.06774,14.70718l-.04852-.14401c.51612,3.86662.98372,7.73325,1.47646,11.67166l.29494,2.26601c3.24612,25.03393,6.593,50.91307,8.85539,76.5944,1.2049,13.54185,2.01783,25.75312,2.43505,37.33499.37046,10.30485-1.74627,20.55569-6.19916,29.56574-6.76379,13.82988-19.18724,25.60933-37.98064,36.04019-4.84673,2.71562-9.93977,5.12542-14.88364,7.46344-3.37015,1.60039-6.86269,3.27301-10.25809,5.01741-9.05319,4.65782-17.58849,10.03526-25.33777,15.98788-7.8968,6.00663-15.17858,12.80466-21.69781,20.1601-3.6652,4.08242-6.64151,7.80525-9.10181,11.33007-1.15639,1.60061-2.16349,3.34501-.85958,5.34122.34346.59362.93334,1.04322,1.59874,1.33081.95859.4136,2.08973.48561,3.02494.12601,1.52509-.6654,2.92779-2.76962,4.0338-4.46002.39395-.61162.76441-1.18701,1.15639-1.60061,11.36596-14.62108,25.58419-27.01214,42.16558-36.68759,6.27281-3.72283,12.88918-6.94183,19.33465-10.08905,9.88949-4.87384,20.17096-9.98126,29.37156-16.70729,16.77743-12.30106,27.7243-27.85734,31.56217-44.87022,2.31266-10.39486,1.67251-20.96951,1.08262-31.18457l-.07376-1.16879c-.64027-10.44886-1.50171-21.43712-2.70661-33.61238-2.16525-21.8865-5.04277-44.40262-7.60186-64.18512l.05038-.10801h-.22118c-1.67262,0-2.53406-1.15101-2.63296-2.28401-.12228-1.097.44247-2.3738,2.01783-2.64361h.19604l-.02514-.2158c-.51623-3.77662-.95859-7.55323-1.47471-11.31206-.05038-.55739-.12415-1.3128-.14753-2.24801-.1978-3.50681-.5665-8.83003-2.87917-10.71845-.71227-.57539-1.57361-.8092-2.55744-.6474-.96034.12579-1.72278.57539-2.26415,1.3128-1.74627,2.42781-.76255,7.67924-.04852,11.16805.17266.86342.29494,1.65462.39384,2.24801v-.08979l-.05038.018Z"/><path class="cls-2" d="M228.50583,530.47279c.14742-3.90241-5.41323-5.05342-9.47227-5.89862l-.04852-.26981c-1.13125-.1978-2.23901-.4316-3.05007-.6834-3.46916-1.115-6.4941-2.21201-9.17557-3.41702l-.44236-.1978c-8.06946-3.66882-15.27748-8.34464-21.45139-13.77588-17.86006-15.82587-27.94548-38.55779-29.2494-65.78573-.36859-8.02083-.27156-16.16768-.14742-24.08073,2.92779-53.64647,4.5014-111.19556-23.0251-149.30396-.32008-.48561-.6654-.98899-1.034-1.4566-.02525,0-.04863-.07201-.07376-.09001-1.13125-1.43882-2.38654-2.8054-3.44391-3.97441-.58988-.6834-1.20501-1.25902-1.57361-1.79841-3.00156-3.59682-6.19916-7.08585-9.47227-10.23306-6.593-6.47423-13.87291-12.46285-21.69605-17.84008-8.65934-5.91684-18.18002-10.61066-27.3556-15.10668-8.33916-4.08242-16.92474-8.34464-24.8953-13.48807-.76255-.4676-1.57361-.98921-2.48368-1.5286-2.60761-1.58261-5.41136-3.32723-7.55323-5.26944,0,2.85941-.02338,5.70104-.26981,8.54244,9.56931,7.01384,20.14758,12.33706,30.40567,17.49849,8.09284,4.04642,16.43211,8.25464,24.23001,13.25427,8.85714,5.62903,16.94998,12.13926,24.10762,19.22511,3.49441,3.45281,6.81417,7.04962,9.81573,10.71845,1.49995,1.81641,3.0268,3.70483,4.55178,5.73704.17091.26959.44247.53939.58988.8632.3687.53939.76255,1.13301,1.2049,1.63639,19.50743,28.48696,22.46036,76.88199,20.81123,129.21587-.04852,0-.14742.05379-.19604.07179.12228.2518.17266.50361.17266.75541,0,3.95641.07376,7.98483.12228,11.85145.32019,19.06309.64027,38.75581-6.05163,57.0277-6.22429,17.12067-18.08123,31.86776-33.43061,41.61499-7.03535,4.46024-14.46466,7.87704-22.09165,10.14305-.98372.30581-2.11497.52161-3.1976.77341-1.79479.34159-3.6652.73741-5.21543,1.4746-1.79479.8632-2.90255,2.53582-2.72989,4.17243.12228,1.2228.86134,2.158,2.14011,2.71562.29483.12579.66354.30559,1.05738.3776.32019.07201.68878.07201,1.08262,0,.19604-.036.3687,0,.54137,0,13.08698.35959,26.39525.2158,39.26106.09001,6.39695-.054,13.01333-.14401,19.43366-.14401h69.49407c3.98528,0,7.97056-.07179,11.98098-.054h1.08273c2.70475.054,5.83045.18002,6.66665-3.34501h.04852l.02525-.018ZM192.12218,525.95877v.07201h-4.89524c-11.58714,0-23.2229.036-34.78479.036h-40.19627c-1.20501-.054-2.40992-.97121-2.75524-2.158-.2697-.8992.07376-1.79841,1.03411-2.33802,18.20351-11.15005,31.73296-27.71355,39.13878-47.99944.31832-.8992,1.13125-1.45682,2.14011-1.43882.91007,0,2.01608.4676,2.38467,1.58261,7.2584,19.9623,20.93538,36.83138,38.59752,47.56783.61502.39582,1.67251,1.25902,1.42795,2.66161-.14753.98921-1.13301,2.12222-2.14011,2.06821h.02338l.02514-.054Z"/><path class="cls-2" d="M7.57482,135.25438c0-.55739.07376-1.15079.09714-1.7264.07376-.3956.12404-.8092.0989-1.16901.24643-4.65782.5665-9.58544.95859-15.07068,1.64913-22.7497,4.25684-45.15803,6.29794-62.1349,1.08273-8.81225,2.21387-17.78629,3.32174-26.41874l.68878-5.34122c.22118-1.83441.58988-3.74061.88483-5.61103.64016-3.88463,1.32894-7.89504,1.35419-11.79745.02338-.48561.09714-.86342.1708-1.33102.19791-1.13301.39384-2.26579-1.17977-3.6146C18.96416-.1477,16.15864.0141,14.92849,1.3089c-1.25342,1.33081-1.47471,4.46002-1.62212,6.94183-.05038.70141-.07376,1.38481-.14753,1.87042-.56639,4.56803-1.10776,9.04605-1.72278,13.57808C6.9598,58.78621,2.33425,95.14999.3668,131.10017c0,.1618-.05038.32381-.0989.4676-2.26239,33.14456,9.91463,56.59588,32.34798,73.21317l.27156-8.54244c-15.7936-13.07447-23.66526-33.95397-25.31263-61.0019h-.02514l.02514.01778Z"/><path class="cls-2" d="M763.8545,465.56827l-11.7598-47.15424h-10.9955l-11.90546,47.15424-12.45221-47.15424h-10.51889l17.40134,63.66373h11.28331l11.68966-46.34504,11.52062,46.34504h11.16267l17.78443-63.66373h-10.61241l-12.62114,47.15424h.02338Z"/><path class="cls-2" d="M823.41593,418.45004h-10.13043v63.66373h10.13043v-63.66373Z"/><path class="cls-2" d="M895.7299,465.64028l-29.92534-47.19024h-11.16827v63.66373h10.08916l-.2158-47.58606,30.19525,47.58606h10.77245v-63.66373h-9.96326l.2158,47.19024Z"/><path class="cls-2" d="M936.78772,482.07776h43.61142v-9.71145h-33.54037v-17.8943h29.38594v-9.71123h-29.38594v-16.63528h33.54037v-9.71145h-43.61142v63.66373Z"/><path class="cls-2" d="M1088.68129,450.7494c-2.10422-1.2588-4.47802-2.28401-7.04984-3.07521-2.48159-.75541-5.01741-1.33081-7.53523-1.88842-2.96742-.6834-5.88083-1.40281-8.63245-2.19401-2.42781-.6474-4.37001-1.67262-5.80883-2.91341-1.16901-1.04322-1.78041-2.53582-1.78041-4.60403,0-1.79841.4676-3.29101,1.40281-4.54981,1.025-1.33102,2.3738-2.42803,4.20822-3.18322,3.50703-1.49282,8.66846-1.54661,12.55286-.4316,1.67262.48539,3.12921,1.2588,4.37023,2.158,1.115.93521,1.97821,2.06821,2.5896,3.45302.59362,1.40259.84542,3.05721.75541,5.01741l-.1618,3.12921,10.08905-1.78041v-2.03221c.08979-4.58581-.95321-8.54244-3.12921-11.54565-2.17622-3.00342-5.03563-5.28744-8.56045-6.74403-6.90583-2.78762-16.70729-2.78762-23.19952.1798-3.38102,1.54661-6.07863,3.77662-8.03884,6.56424-1.99621,2.85941-2.96742,6.27643-2.96742,10.10705,0,3.43502.8092,6.36622,2.32002,8.68624,1.4926,2.19401,3.50681,4.06442,5.91662,5.39523,2.28401,1.2948,4.85584,2.32002,7.60746,3.07521,2.66161.75541,5.28722,1.33102,7.91282,1.88842,2.67961.5934,5.28744,1.24102,7.76925,1.92442,2.176.6474,3.90241,1.56461,5.10742,2.7514,1.02522.97121,1.56461,2.37402,1.56461,4.31623,0,1.81641-.48561,3.34501-1.4386,4.58603-1.02522,1.34881-2.58982,2.3738-4.69404,3.14722-4.46002,1.61839-12.01325,1.7084-16.99488-.18002-2.26601-.8632-3.88463-2.176-4.94563-3.92041-1.079-1.79841-1.45682-4.26222-1.13301-7.31965l.3776-3.05721-10.01704,1.079-.1618,2.05021c-.32381,3.61482,0,6.85204,1.025,9.67545,1.02522,2.84141,2.67961,5.28744,4.85562,7.13963,2.14022,1.88842,4.90984,3.36302,8.07506,4.26222,3.05721.93521,6.63602,1.34881,10.52065,1.34881,5.05342,0,9.47765-.77319,13.03847-2.21201,3.70461-1.5106,6.65403-3.70461,8.56045-6.52823,1.97821-2.87741,2.9672-6.20442,2.9672-10.05305,0-3.29101-.6474-6.09663-1.97821-8.29064-1.3128-2.21201-3.12921-4.01042-5.41323-5.34122l.07201-.07201v-.054l-.018.036Z"/><path class="cls-2" d="M1163.78287,444.81456h-29.11614v-26.40052h-10.03526v63.66373h10.03526v-27.58775h29.11614v27.58775h10.08905v-63.66373h-10.08905v26.40052Z"/><path class="cls-2" d="M1251.14951,426.45287c-2.40981-2.96742-5.39523-5.23343-8.77625-6.78004-3.38102-1.5106-7.21142-2.3378-11.41985-2.3378-5.28722,0-10.08905,1.2948-14.24326,3.83062-4.20844,2.5356-7.49945,6.36622-9.87325,11.34785-2.32002,4.85584-3.50703,10.91647-3.50703,18.02009,0,4.63982.53961,9.01005,1.67262,12.84067,1.115,3.99242,2.84141,7.51723,5.10742,10.41286,2.32002,3.03921,5.28722,5.32322,8.72224,6.95983,3.45302,1.61839,7.55345,2.48181,12.17527,2.48181,4.60403,0,8.66824-.80942,12.13926-2.48181,3.43502-1.63661,6.34844-3.99264,8.66824-6.92405,2.28401-2.91341,3.99264-6.40222,5.12564-10.39464,1.079-3.88463,1.61839-8.16485,1.61839-12.67887,0-5.03563-.6474-9.60344-1.8882-13.72187-1.2948-4.15421-3.12921-7.69724-5.50324-10.64666l-.036.07201h.036-.018ZM1213.43692,450.42559c0-5.07142.75541-9.42365,2.19401-12.93046,1.40281-3.39902,3.39902-5.89883,5.97084-7.66124,2.66161-1.7264,5.66503-2.5896,9.27985-2.5896,3.6146,0,6.79782.8632,9.38764,2.66161,2.5896,1.79841,4.55003,4.29822,5.93462,7.69724,1.45682,3.52481,2.17622,7.82304,2.17622,12.89445s-.70141,9.29785-2.10422,12.73288c-1.33081,3.34501-3.21922,5.79082-5.80883,7.53523-2.53582,1.7264-5.80883,2.5896-9.65745,2.5896-2.78762,0-5.32322-.48539-7.42744-1.4566-2.10422-.97121-3.83062-2.30202-5.28744-4.17221-1.4566-1.81641-2.66161-4.26244-3.3988-7.04984-.80942-2.93142-1.24102-6.36644-1.24102-10.19706l-.018-.054Z"/><path class="cls-2" d="M1332.45574,431.14669c-1.20501-2.82341-2.96742-5.19743-5.28744-7.04962-2.26601-1.90642-5.01741-3.30923-8.14685-4.26222-3.07521-.93521-6.58202-1.42081-10.43064-1.42081h-20.6097v63.66373h10.08905v-19.63871h8.54244c5.91662,0,10.95225-.8632,14.92666-2.48181,4.17243-1.7264,7.35565-4.26222,9.49565-7.53523,2.10422-3.30923,3.18322-7.30165,3.18322-11.86968,0-3.45281-.5934-6.58202-1.79841-9.33364v-.054l.036-.018ZM1320.19046,449.56238c-2.87741,2.06821-7.22964,3.07543-13.00246,3.07543h-9.11784v-24.47632h10.14305c5.53902,0,9.69323,1.025,12.22905,3.05721,2.44581,1.9422,3.61482,4.85562,3.61482,8.90204,0,4.47802-1.3128,7.53545-3.86662,9.42365v.018Z"/><path class="cls-2" d="M616.49098,419.09744h11.84256l26.19197,64.65272h-12.3622l-20.14045-52.18987-20.05406,52.18987h-12.1015l26.62368-64.65272ZM603.78522,459.54364h36.04557v10.07105h-36.04557v-10.07105Z"/><path class="cls-2" d="M422.62249,355.46971v-207.71626h23.07175c12.48634,0,22.9082,4.44202,31.28512,13.27227,8.37878,8.86603,12.54759,20.4119,12.54759,34.60137v3.14722c0,1.33081-.16553,3.16522-.5575,5.50302-1.71213,13.63208-7.88253,24.89014-18.4697,33.77418l-2.88828,2.32002-2.33253,1.7264c3.818,2.10422,7.9867,5.61103,12.42345,10.37686,5.59303,6.15064,9.53517,11.68966,11.82456,16.58128,2.33253,4.87384,4.04455,12.15726,5.2207,21.79671v13.23627c-2.33067,21.36511-11.82445,36.5438-28.5605,45.60785-7.71876,3.83062-14.52931,5.77282-20.47128,5.77282h-23.09338ZM445.36517,169.11856v58.2865c6.14877-.55761,11.36958-3.65082,15.57966-9.20785,4.21008-5.59325,6.31595-13.14648,6.31595-22.80392,0-6.92383-1.54836-12.58886-4.60206-17.01288-2.10597-3.29123-4.60217-5.59303-7.4922-7.03184-2.88828-1.45682-6.14877-2.176-9.82298-2.176v-.054h.02162ZM445.36517,259.39862v73.26717c6.93283,0,12.81542-2.66161,17.74667-7.91282,4.87011-5.26944,8.08933-12.82267,9.65745-22.64213.16553-1.3128.26981-3.4348.26981-6.31243,0-2.71562-.26981-5.64703-.88845-8.93804-1.71202-9.18984-5.05528-16.25769-9.92539-21.0593-4.89162-4.83783-10.5459-6.94183-16.86009-6.31243v-.09001Z"/><path class="cls-2" d="M519.24198,294.072c-2.88817-6.54624-5.1578-13.38006-6.76917-20.46591-1.60961-7.10363-2.43505-13.77588-2.43505-19.92629v-7.48144c0-11.70766,2.72462-24.08073,8.09108-37.06519,5.38623-12.96646,12.81542-24.44032,22.18331-34.49358,21.91723-22.89371,48.74596-34.33157,80.48419-34.33157,11.37145,0,23.07186,1.99621,35.22726,6.04263,16.75756,5.59303,30.56395,13.25427,41.54332,23.07351,16.36372,14.42328,27.40587,31.83197,33.16267,52.17187,2.49795,9.44165,3.77662,20.57391,3.77662,33.45059,0,18.63149-5.98511,37.10119-17.87081,55.40887-2.49795,3.83062-5.65592,8.07484-9.53517,12.67887-12.0925,13.27227-26.84837,23.36132-44.16355,30.30315-13.24889,5.21543-26.55892,7.75103-39.82932,7.75103-13.26865,0-26.84848-2.21201-39.53987-6.67203-15.97339-5.61103-29.51009-14.02746-40.65476-25.39353-9.82298-9.81924-17.68564-21.52691-23.62937-35.21277l-.06114.08979.01976.07201ZM532.49087,248.75217c0,8.48844,1.15639,17.03088,3.44754,25.69912,4.43675,15.73608,13.24889,29.99756,26.58054,42.71222,7.88242,7.87704,18.4697,13.86588,31.71859,17.8583,4.82872,1.54661,9.36964,2.60761,13.702,3.16522,4.33423.55739,9.20433.8812,14.59056.8812h5.2207c2.33253-.3956,4.04466-.55761,5.22268-.55761,11.535-1.15101,21.91537-4.44202,31.18073-9.81924,10.58728-5.59303,19.52356-12.87667,26.85024-21.9225,6.3143-7.48144,11.36958-16.02389,15.14631-25.68134,3.77662-9.58566,5.61278-20.1781,5.61278-31.72396,0-23.86492-9.20247-44.72643-27.67392-62.63851-5.38623-4.98163-11.43248-9.31586-18.20165-12.96668-6.70627-3.65082-13.20762-6.54624-19.35628-8.65023-6.15064-2.10422-11.63939-3.14722-16.42673-3.14722-7.88418,0-14.36389.2158-19.46056.71919-5.09853.48561-9.86611,1.38481-14.26137,2.71562-16.13717,5.21543-29.11811,12.87667-38.94098,23.07373-4.43664,4.42402-8.87514,10.30485-13.24889,17.57049l-2.89003,5.23321-1.17614,2.32002c-1.94056,4.44202-3.83786,10.37686-5.77831,17.91209-1.17614,4.99963-1.71213,10.77245-1.71213,17.31869l-.10428-.07179h-.04138Z"/><path class="cls-2" d="M766.18341,352.5743c-8.64672-7.31965-12.98095-15.57428-12.98095-24.80013v-180.02071h22.80382v172.21568l.28956,3.43502c1.54847,9.98104,5.75855,14.98067,12.71301,14.98067,2.10411,0,4.60206-.55761,7.49033-1.70862,5.22081-2.3378,7.76014-8.65023,7.76014-19.02709v-169.93166h22.80744v177.9705c0,15.59229-7.76376,26.23895-23.36494,32.01177-4.21008,1.54661-8.54431,2.33802-12.98095,2.33802-10.21495,0-18.36718-2.49982-24.51595-7.49945v.07201l-.02151-.036Z"/><path class="cls-2" d="M1025.84498,161.88892c13.86566,9.81924,23.95471,20.8615,30.26715,33.16256l-18.4697,10.08927-4.89162-6.94205c-6.94183-9.02783-15.48428-16.61728-25.66333-22.7857-7.33743-4.22622-14.87288-7.49945-22.64191-9.83725-7.76925-2.32002-16.20368-3.43502-25.24973-3.43502-7.31943,0-14.74687.8812-22.33632,2.5896-7.60724,1.72662-14.65686,4.33423-21.20309,7.76925-8.86625,4.60381-16.63528,10.64644-23.36132,18.19989-11.36607,12.48085-18.7575,26.74234-22.17453,42.71222-.55739,3.43502-1.061,6.65403-1.4566,9.53144-.3956,2.87763-.55761,5.88083-.55761,8.92026,0,15.19647,4.04642,29.51174,12.10326,42.98202,8.07506,13.47007,18.9553,24.02672,32.60517,31.74175,7.87704,4.20844,15.86209,7.39144,23.95493,9.36986,8.09284,1.99621,16.63528,3.05721,25.69934,3.05721,7.31943,0,14.26126-.8992,20.89751-2.73362,6.67203-1.83441,13.54185-4.65782,20.6457-8.47044,10.21484-5.59303,19.67449-13.64986,28.55875-24.26052l3.77662-4.33423,1.7084-2.5896,19.2969,11.52764-1.7084,2.33802-1.7264,2.33802-6.04263,7.48122c-7.87704,8.86625-15.96988,16.04189-24.24274,21.52712-8.27264,5.48502-16.14968,9.58544-23.6309,12.24705l-3.16522,1.15101-5.21543,1.4566-5.48524,1.43882-3.16522.8812-17.84008,2.01421c-9.44165,0-17.75029-.55739-24.97993-1.61861-7.19364-1.043-14.58507-3.05721-22.08452-5.93462-4.04642-1.54661-8.14685-3.38102-12.40907-5.48524-4.22622-2.104-7.89504-4.20822-10.98825-6.31243l-4.33423-3.16522c-9.81924-7.49923-18.19989-16.02367-25.14172-25.68112-9.81924-13.65008-15.86187-28.68476-18.19989-44.99623l-1.43871-20.1961c0-6.52823.5575-12.80466,1.70851-18.9193,1.15101-6.04263,3.05732-12.24727,5.75493-18.55971,4.44202-10.39464,10.59266-20.30389,18.46959-29.74554,12.49908-14.42328,28.73854-25.39353,48.77285-32.89297,8.09284-2.87741,15.57428-4.76583,22.51612-5.57502,6.92383-.8992,12.69687-1.29502,17.31869-1.29502,1.70862,0,4.15443.18002,7.19364.55761,3.05743.3956,5.26944.55761,6.67203.55761,1.70862,0,2.98542.23358,3.77683.55739l14.13547,3.16522,3.77662,1.15101c1.9422.55739,3.38102,1.061,4.33423,1.4386,9.02805,3.45302,17.67828,8.09284,25.95092,13.86588l-.1618-.09001.07201.036Z"/><path class="cls-2" d="M1096.82813,355.46971h-22.80392v-207.71626h22.80392v89.14705h25.41153v-89.14705h22.80371v207.71626h-22.80371v-97.7795h-25.41153v97.7795Z"/><path class="cls-2" d="M1172.99072,294.072c-2.87741-6.54624-5.14342-13.38006-6.76204-20.46591-1.60061-7.10363-2.42781-13.77588-2.42781-19.92629v-7.48144c0-11.70766,2.71562-24.08073,8.09284-37.06519,5.37723-12.96646,12.80466-24.44032,22.17431-34.49358,21.92272-22.89371,48.75485-34.33157,80.47881-34.33157,11.38407,0,23.07373,1.99621,35.23099,6.04263,16.76108,5.59303,30.57296,13.25427,41.54321,23.07351,16.36548,14.42328,27.40774,31.83197,33.16256,52.17187,2.49982,9.44165,3.77662,20.57391,3.77662,33.45059,0,18.63149-5.98862,37.10119-17.87608,55.40887-2.48181,3.83062-5.64703,8.07484-9.53166,12.67887-12.08526,13.27227-26.85013,23.36132-44.15081,30.30315-13.25427,5.21543-26.58054,7.75103-39.83481,7.75103s-26.85035-2.21201-39.565-6.67203c-15.96988-5.61103-29.51196-14.02746-40.644-25.39353-9.83725-9.81924-17.69628-21.52691-23.63112-35.21277l-.07201.08979.036.07201ZM1186.24498,248.75217c0,8.48844,1.15101,17.03088,3.45302,25.69912,4.44202,15.73608,13.25427,29.99756,26.58054,42.71222,7.87682,7.87704,18.46948,13.86588,31.72374,17.8583,4.81983,1.54661,9.36986,2.60761,13.68609,3.16522,4.33401.55739,9.20785.8812,14.60307.8812h5.21521c2.33802-.3956,4.04642-.55761,5.21543-.55761,11.54587-1.15101,21.92272-4.44202,31.18435-9.81924,10.59266-5.59303,19.53092-12.87667,26.85035-21.9225,6.31243-7.48144,11.36585-16.02389,15.14268-25.68134,3.77662-9.58566,5.62903-20.1781,5.62903-31.72396,0-23.86492-9.20785-44.72643-27.67754-62.63851-5.39523-4.98163-11.43786-9.31586-18.19989-12.96668-6.70803-3.65082-13.21848-6.54624-19.3689-8.65023-6.15064-2.10422-11.63565-3.14722-16.41948-3.14722-7.87704,0-14.36927.2158-19.45891.71919-5.10742.48561-9.87325,1.38481-14.26126,2.71562-16.13168,5.21543-29.11636,12.87667-38.9356,23.07373-4.44202,4.42402-8.88404,10.30485-13.25427,17.57049l-2.89541,5.23321-1.15101,2.32002c-1.9422,4.44202-3.84862,10.37686-5.75482,17.91209-1.18701,4.99963-1.70862,10.77245-1.70862,17.31869l-.10779-.07179h-.09001Z"/><path class="cls-2" d="M1429.76763,355.46971h-22.80392v-207.71626h38.6478l29.74576,184.35494h1.43882v-184.35494h22.80371l.26981,207.71626h-38.6478l-30.28515-185.79376-1.16901-.28759v186.08134Z"/></svg>