<?xml version="1.0" encoding="UTF-8"?><svg id="Layer_1" xmlns="http://www.w3.org/2000/svg" viewBox="0 0 947.25876 821.63426"><defs><style>.cls-1{fill:#c1965c;}</style></defs><path class="cls-1" d="M0,708.0605v-182.65224h20.28823c10.9778,0,20.1433,3.90146,27.50944,11.6677,7.36825,7.80082,11.03403,17.94384,11.03403,30.4269v2.77471c0,1.1614-.14494,2.77689-.49091,4.82712-1.50526,11.99215-6.93146,21.89943-16.23965,29.70024l-2.5412,2.05023-2.05023,1.50526c3.3565,1.85124,7.02228,4.93522,10.92374,9.12656,4.918,5.40673,8.38478,10.2879,10.39825,14.58734,2.05023,4.28215,3.5576,10.68799,4.59136,19.1593v11.64823c-2.05023,18.77868-10.39818,32.13327-25.11528,40.09849-6.78653,3.37379-12.77505,5.08016-18.00225,5.08016H0ZM19.99843,544.18687v51.25581c5.40673-.4888,9.99809-3.21163,13.70063-8.0928,3.70036-4.91582,5.5516-11.55741,5.5516-20.04819,0-6.09663-1.36033-11.06643-4.04633-14.96796-1.8513-2.885-4.0464-4.91582-6.5876-6.18744-2.53896-1.26951-5.40673-1.90536-8.63776-1.90536v-.05405h.01947ZM19.99843,623.5836v64.4287c6.09663,0,11.2676-2.34215,15.60599-6.96816,4.28209-4.62601,7.11309-11.2676,8.49289-19.90325.14487-1.16134.23569-3.02993.23569-5.55166,0-2.3962-.23569-4.97199-.78072-7.85705-1.50738-8.09062-4.44649-14.29754-8.72865-18.52346-4.30156-4.24532-9.27361-6.09663-14.82521-5.5516v-.07352Z"/><path class="cls-1" d="M84.96133,654.06456c-2.53902-5.75059-4.5352-11.7564-5.95176-17.9979-1.41438-6.24156-2.14104-12.10244-2.14104-17.50917v-6.58542c0-10.2879,2.39627-21.1727,7.11309-32.58524,4.7363-11.41254,11.26978-21.50145,19.50745-30.33609,19.27176-20.13894,42.86238-30.19115,70.77191-30.19115,10.00033,0,20.28823,1.76042,30.9784,5.31591,14.73446,4.91793,26.87359,11.64823,36.52789,20.28388,14.39053,12.68416,24.09888,27.99605,29.16168,45.88578,2.19734,8.29179,3.32192,18.08878,3.32192,29.4105,0,16.38452-5.26397,32.622-15.71627,48.71461-2.1951,3.37597-4.97205,7.11309-8.38261,11.15949-10.63394,11.66552-23.61008,20.53903-38.83545,26.63355-11.64823,4.59136-23.35486,6.82329-35.02262,6.82329s-23.60791-1.94212-34.76958-5.86094c-14.04449-4.93522-25.94794-12.33812-35.74711-22.3341-8.63994-8.63776-15.55193-18.92355-20.77914-30.97187l-.05405.09082.01729.05405ZM96.61174,614.22129c0,7.45696,1.01647,14.97014,3.02993,22.58933,3.90153,13.84339,11.6504,26.3805,23.3744,37.55729,6.9314,6.9314,16.24177,12.19325,27.89006,15.71198,4.2475,1.36033,8.23985,2.28591,12.0505,2.77689,3.81065.48873,8.0928.77854,12.8291.77854h4.59136c2.05023-.34386,3.55767-.48873,4.59143-.48873,10.14303-1.01647,19.2717-3.90153,27.41855-8.63565,9.31044-4.91793,17.16748-11.32172,23.61015-19.26959,5.55378-6.58536,9.99809-14.09643,13.32001-22.58933,3.31974-8.43666,4.93522-17.74267,4.93522-27.90299,0-20.97378-8.09273-39.31778-24.33457-55.06646-4.7363-4.39026-10.05221-8.20091-16.00608-11.41254-5.89764-3.21156-11.61364-5.75059-17.02037-7.60183-5.40891-1.8513-10.23602-2.77695-14.44465-2.77695-6.93357,0-12.63011.20117-17.11336.63584-4.48108.43474-8.67453,1.21546-12.53929,2.39409-14.19154,4.59143-25.60408,11.32172-34.24191,20.28605-3.90146,3.89935-7.80293,9.07033-11.6504,15.45676l-2.54114,4.59143-1.03376,2.05023c-1.70637,3.90146-3.37597,9.12656-5.08234,15.74868-1.03376,4.39026-1.50526,9.47042-1.50526,15.22101l-.09082-.05405h-.03676Z"/><path class="cls-1" d="M302.10634,705.5193c-7.604-6.44049-11.41472-13.69845-11.41472-21.80854v-158.30038h20.05248v151.42515l.25304,3.02993c1.36251,8.78052,5.06287,13.17296,11.17896,13.17296,1.85124,0,4.0464-.49091,6.58754-1.50738,4.59143-2.05023,6.82329-7.60189,6.82329-16.72845v-149.42898h20.05248v156.50531c0,13.69852-6.82329,23.06076-20.54339,28.14099-3.70036,1.36033-7.51101,2.05023-11.41254,2.05023-8.9838,0-16.15095-2.19516-21.55986-6.58542v.05405l-.01729-.01947Z"/><path class="cls-1" d="M530.42814,537.8372c12.19543,8.63783,21.06895,18.34394,26.62061,29.15739l-16.23972,8.8714-4.30156-6.09663c-6.09663-7.94575-13.60981-14.62199-22.57421-20.04819-6.4426-3.70036-13.06696-6.58536-19.90754-8.63558-6.82329-2.05023-14.24566-3.02993-22.19352-3.02993-6.44267,0-12.97397.78072-19.65239,2.28598-6.67842,1.5052-12.88533,3.81065-18.63592,6.82111-7.80517,4.0464-14.62628,9.36225-20.54339,16.0039-9.99816,10.97568-16.49488,23.5128-19.50745,37.55729-.49097,3.02993-.92565,5.85876-1.26951,8.38261-.34604,2.53902-.49097,5.1688-.49097,7.85487,0,13.35466,3.55767,25.94583,10.634,37.79304,7.11309,11.84722,16.67651,21.11871,28.67295,27.90524,6.9314,3.70036,13.95367,6.49454,21.06677,8.23767,7.11309,1.75824,14.62628,2.68389,22.59362,2.68389,6.44267,0,12.53929-.78072,18.38288-2.39409,5.86087-1.61555,11.90345-4.10045,18.14712-7.45696,8.98169-4.918,17.31024-11.99433,25.11317-21.31981l3.32192-3.80854,1.50526-2.28591,16.96843,10.14085-1.50731,2.05023-1.50533,2.05023-5.31802,6.58536c-6.93146,7.80299-14.04449,14.09861-21.32199,18.92573-7.27743,4.825-14.18943,8.43666-20.77696,10.77669l-2.77689,1.01647-4.59136,1.26951-4.82718,1.26951-2.77689.78072-15.6968,1.76042c-8.29172,0-15.60599-.49091-21.95777-1.41656-6.33238-.92565-12.8291-2.68389-19.41664-5.22503-3.55549-1.36039-7.16721-2.97588-10.92381-4.825-3.70247-1.85124-6.9314-3.70254-9.65423-5.55378l-3.81065-2.77471c-8.63783-6.58542-16.00608-14.09861-22.10271-22.58933-8.63783-11.99215-13.95585-25.21917-16.00608-39.55346l-1.26951-17.76221c0-5.75059.4888-11.2676,1.50526-16.63757,1.01647-5.31591,2.68601-10.77669,5.0628-16.32829,3.90153-9.12656,9.31044-17.85303,16.24183-26.14482,10.97997-12.68199,25.26022-22.3341,42.88185-28.92164,7.11309-2.53902,13.70063-4.19134,19.79726-4.91582,6.09663-.78072,11.15949-1.12458,15.22536-1.12458,1.50526,0,3.66578.14487,6.33238.48873,2.68607.34393,4.62812.49097,5.86305.49097,1.5052,0,2.62984.19892,3.31974.48873l12.43112,2.77689,3.31974,1.01436c1.70637.49091,2.97588.92559,3.81065,1.27162,7.94793,3.02993,15.55193,7.11092,22.82937,12.19108l-.14487-.09082.05405.03676Z"/><path class="cls-1" d="M592.85209,708.0605h-20.05255v-182.65224h20.05255v78.3802h22.33839v-78.3802h20.05255v182.65224h-20.05255v-85.98216h-22.33839v85.98216Z"/><path class="cls-1" d="M659.83282,654.06456c-2.54127-5.75059-4.53737-11.7564-5.95176-17.9979-1.41663-6.24156-2.14329-12.10244-2.14329-17.50917v-6.58542c0-10.2879,2.39633-21.1727,7.11534-32.58524,4.7363-11.41254,11.26754-21.50145,19.50739-30.33609,19.27176-20.13894,42.86244-30.19115,70.77191-30.19115,9.99822,0,20.2883,1.76042,30.97622,5.31591,14.73452,4.91793,26.87577,11.64823,36.53013,20.28388,14.39053,12.68416,24.09875,27.99605,29.16162,45.88578,2.19516,8.29179,3.3198,18.08878,3.3198,29.4105,0,16.38452-5.26179,32.622-15.7141,48.71461-2.19516,3.37597-4.97205,7.11309-8.38478,11.15949-10.63394,11.66552-23.60797,20.53903-38.83327,26.63355-11.65047,4.59136-23.37222,6.82329-35.02269,6.82329s-23.61008-1.94212-34.7868-5.86094c-14.04667-4.93522-25.95018-12.33812-35.74935-22.3341-8.63783-8.63776-15.55187-18.92355-20.77908-30.97187l-.05412.09082.03683.05405ZM671.48316,614.22129c0,7.45696,1.01653,14.97014,3.02993,22.58933,3.90153,13.84339,11.65047,26.3805,23.37222,37.55729,6.93357,6.9314,16.24183,12.19325,27.8923,15.71198,4.24526,1.36033,8.2376,2.28591,12.04832,2.77689,3.81283.48873,8.09491.77854,12.83121.77854h4.59136c2.05023-.34386,3.55556-.48873,4.58925-.48873,10.14527-1.01647,19.27388-3.90153,27.4208-8.63565,9.30826-4.91793,17.16742-11.32172,23.60797-19.26959,5.55378-6.58536,10.0002-14.09643,13.32001-22.58933,3.32192-8.43666,4.93734-17.74267,4.93734-27.90299,0-20.97378-8.09491-39.31778-24.3345-55.06646-4.7363-4.39026-10.05446-8.20091-16.00608-11.41254-5.89777-3.21156-11.61364-5.75059-17.02261-7.60183-5.40673-1.8513-10.23384-2.77695-14.44465-2.77695-6.93133,0-12.63004.20117-17.11119.63584-4.48325.43474-8.67453,1.21546-12.53923,2.39409-14.19161,4.59143-25.60632,11.32172-34.24402,20.28605-3.90153,3.89935-7.80306,9.07033-11.65047,15.45676l-2.53902,4.59143-1.0164,2.05023c-1.70637,3.90146-3.37604,9.12656-5.06287,15.74868-1.03594,4.39026-1.50744,9.47042-1.50744,15.22101l-.09082-.05405h-.07141Z"/><path class="cls-1" d="M885.61335,708.0605h-20.0503v-182.65224h33.98886l26.14911,162.11314h1.26958v-162.11314h20.05241l.23575,182.65224h-33.98886l-26.62061-163.38272-1.03594-.25516v163.63787Z"/><path class="cls-1" d="M413.39624,127.0643s.13847.00215.19681.00865c-.41303-.32442-.9667-.5515-1.34733-.68125l.02165-.04973s-.106.15137-.17523.25951c.35039.19681.76342.34172,1.3041.46283Z"/><path class="cls-1" d="M372.184,136.11298c1.90536,1.96373,4.40544,5.22506,7.48078,5.14722,2.53031-.64017,3.2051-4.64977,5.86741-4.91364,3.42785-1.09214,5.0931.56447,7.16497,2.60172.86077.70072,1.53985,1.22193,1.42738,1.96806-.62938,2.12161-3.78907,3.59222-4.1524,5.83494-.47579,2.1324-1.70637,4.0464-2.42003,5.91278.10382,2.17352,3.26351,3.10563,4.88982,5.34185,3.98152,5.19262,4.80336-3.24186,8.55777-1.94426,1.98324,1.52038,2.18652,6.10095,4.89417,6.89034,3.28944.77425,6.74112-3.13157,10.10844-1.94641,3.2051,1.05323,4.11775,5.15586,8.0495,5.51701,2.09352.33954,4.39026.09299,6.10316-.85209,2.84394-1.8318,2.99317-6.35399,6.64159-7.22988,1.00782-.34386,3.21592-.75045,2.27087,1.01429-.84348.95377-1.56579,2.0827-2.06323,3.28948.49526.22275.85642.48226.96024,1.18513l-1.30845.17087s-.04541-.11897-.07352-.19031c-.72448,2.33786-.49309,4.8055,1.63284,6.76706,2.65578,2.19728,8.12738,2.13458,10.22302-1.0035,1.37333-2.00914,1.83183-3.39326,2.1584-2.0762.20328,1.10299.25733,3.47329-.78507,4.87473-.76989,1.14622-2.20381,1.95723-3.22892,2.83094-.33304.38712-.62931.83266-.90183,1.30627l.18381.08217c.119-.04541.09299-.43468.27898-.62934.25093-.2076,1.4815-1.04891,1.68696-1.01647,1.39709.20546,2.87853,1.92047,1.88153,3.08402-.18599.19463-.78507.06702-.85642.84992.53196.23575,1.58737,1.34304,1.63066,1.95941.02158,1.02294-1.18734.16437-1.48579.56879-.77207-.18599-3.32192-1.64149-3.56196-1.58958-.12111.04541-.11675.48444-.28116.62934-.39356.3006-.81748.27251-1.2868.12111-.3568,1.29109-.6466,2.65149-.80448,3.85394,2.69472,6.38637,13.45841,2.74442,16.87332-1.07706,1.20028-1.49008,1.29109-3.47543,2.04587-5.16451l-.08217-.03891c-1.28034-.2509-3.19216-2.91315-4.98934-2.22325l-2.22321-1.25222c.94288-.6899,1.49226.12976,2.15187.20764.35251.05623,1.44685-.74613,1.79718-.6899.43468.09514,2.02858.84559,2.50437,1.11593.13193.06056.08653.51688.21846.57529.60773.33089,1.06188.47362,1.50955.67261,1.28034-1.89021,3.46461-5.22724,3.2051-1.92697-.03029.78072-.30928,1.6696-.70719,2.56496,1.07699.48012,1.57879,1.71716.8586,2.88717-.72237-.16434-.64013-.70287-1.29763-1.05537l-.44768-.20114c-2.59955,4.40326-6.88599,9.10709-.28981,11.29572,3.00182,2.1324.08217,5.91711-1.17216,8.23767-.58826,1.18734-.28981,2.43303.44121,3.55549,1.80147,3.26568,4.44431,8.12092,8.75887,5.3959,2.06752-1.73877,3.80636-4.3405,5.31156-6.8687.08006-.18163.14058-.31574.22711-.37633.28545-.50602.59044-.9667.85424-1.42521l-.18163-.08217c-.37633,1.82101-2.4525.23793-2.64284.31145-.07135.02812-.43039,1.09864-1.18516.96241-1.67389-.21199-.60984-1.12682-.65096-1.30416-.07352-.19028-1.41656-1.00993-1.69336-1.23268-.93859-.7959.68343-3.80636,2.06752-3.56632.58826.10382,1.41656.78943,2.08699.92994.13411.06059.74395-.46279,1.42092.15794.22922.2011,1.12029,1.45332,1.26298,1.57654.26605.119.49744.22064.74184.38933,1.10946-1.15276,2.99317-1.5442,3.62466-2.87206.74178-1.43821.83048-4.00099,2.76177-5.34403.98835-1.01,2.31839-1.58743,3.66142-1.88371l-1.02729-.4585.55579-1.2414,1.2414.55367-.48008,1.07699c1.3668-.30274,2.68818-.41085,3.8323-.43685,1.33432-.09946,2.79847-1.73013,4.00528-2.74224,1.33868-.95159,2.72283-1.78425,3.77171-2.84612-1.09428.04755-2.46543.98617-2.93694.61634-.15787-.984-1.22404-.86506-1.90965-1.33003-.5212-.39145-1.22404-.86292-1.91182-1.32789-.18163-.0822-.05188-.81751-.84988-.85645l.75478-1.69122c.99046.54285,2.17345.87156,3.11421,1.39062.39798.17734,1.05759,1.32574,2.32492,1.51388.35251.05841,1.08781-.74613,1.61984-.28981.32875.2444.56668.51041.81101.67911.11682-.26601.30499-.46068.42174-.72666,4.03558-11.4493,4.55678-7.36399,8.03221-6.28912-.09511-.14276-.25516-.27466-.52985-.2379l.75478-1.68907c.53203.49526,1.15487.03894,1.20463.06056.13193.05841.08653.51688.22057.57529.37415.22707,1.02947.67693,1.82536,1.0727.57526-.22061,1.17216-.49094,1.87935-.87156,2.72501-1.56364,4.60872-4.71683,7.50883-5.82847,2.31192-.99482,4.86823,1.914,6.806,1.48794,4.8877-1.01865,8.41937-2.70122,12.28189-6.10527l.49526-1.10946.132.05838c.63796-1.2046,1.03369-2.53899,1.97881-3.22889,1.14629-.88021,3.36733-.96024,5.0824-1.6869,1.49649-.50391,2.5843-.17734,3.70247.69855.58172.47797,1.36897.98835,2.06541,1.33871,4.28644.68125,5.54731-4.99581,8.11432-7.54563,2.43303-2.11296,4.85101-4.41191,7.23863-6.64595l-.54938.29413c-2.89146-1.6696-6.85569-2.58225-9.57859-4.27351-.37409-.22707-.80877-.67908-.74607-1.08781.04541-.2379.34822-1.13758.67479-.93212,1.81012.70937,3.57496,1.69554,5.43484,2.42438,1.41214.53203,3.95987,1.54846,5.61212,2.02858.08435.0368.53856-.1384.997-.09299,2.29892-2.17348,4.58925-4.40973,6.79088-6.58539l.40445-.41524c1.64367-1.41438,2.60384-3.20942,2.46761-6.11174l.19246-.07356c.66607-4.61083-.11246-9.54612,1.59615-14.08993,1.42296-4.39026-1.91625-5.50187-5.79824-5.08881-1.28674-.09732-2.32056.03676-3.10134.22707l.14494.16437-.55361,1.2414c-.58186-.47797-1.09441.04759-1.55285-.21628-2.09352,2.64281.59479,8.11227-4.64548,9.78834-4.65406,1.44035-6.99839-4.88985-11.55517-4.51787-3.14028.08867-5.14299,4.2216-7.58684,5.15804.86724-1.32142,1.97248-3.70901,2.58879-5.57975,2.90018-4.58707,3.38251-7.09362,5.34614-11.76072,3.76742-4.83576,2.04165-7.4721-2.14104-11.14649-1.80576-1.91833-5.49754-3.62469-7.59318-1.42092-1.17441,1.56146-1.61991,3.98584-3.017,5.42838-1.68907,1.86856-4.71676,3.39973-5.85005,6.03175-1.65442,5.40241-5.65977,5.96037-7.3142,10.78316-.35468.79586-.77643,1.74098-1.38198,2.3833-.59473.49094-1.34304.47362-2.04376.26169-3.12939-1.71501-5.64677-.75045-9.29308-.72884-3.14669.46283-5.51266,3.363-7.91546,4.69521-2.32056,1.14837-3.34568,3.31324-5.16451,4.62816-4.4032,2.2081-7.96733-4.40973-4.16098-7.19962,1.31703-.90183,3.03858-1.64363,3.79553-3.11643.91694-1.83394.88453-4.254,1.15487-6.41669l-.53203-.2379c-.1817-.08003-.10817-.46497-.22064-.57529-.22704-.20114-.61637-.17516-.84342-.3763-.22928-.20114-.34604-1.00782-1.29763-1.05541l.55367-1.24354c.45197.67911,1.7193,1.40359,2.71201,1.80586.39356-1.37333,1.15269-2.58443,2.67525-3.23539.984-.51473,1.76042-1.18299,2.35086-1.93129-1.30198-.42171-2.8483-1.05323-4.23892-.56229l-4.35997-1.94426c.904-1.04673-.64231-1.67607-.68772-1.79718-.04541-.11897,1.16569-2.8353,1.39062-3.11428.14487-.19249,1.37544-.4585,1.79718-.68775.14058-.09514.2941-.66393,1.08781-.74613.5645-.06702,2.09564-.5147,2.19516-.51256.63796.12761,1.17434.84345,1.81665.33521.21193.72884.81748,1.37765.27463,2.14758-.56661-.51041-.904-.02379-1.20463-.06056-.27034-.01947-.54278-.34172-.84559-.37633-.23786-.04541-3.09263.96459-3.75224,1.10732l-1.3301,1.90965c.20546,1.32357,1.34304,2.24922,2.65796,2.41788.23793.04544.96888-.48012,1.22193-.46712.50609.06702,1.13329.66393,1.64149.73098.23575.04759.96888-.48012,1.22193-.46715.38498.07138,1.73448.29627,1.81665.33307l.08435.03676c.1384-.5342.22057-1.0727.17516-1.72801.14494-2.24054.22493-5.18394-1.87717-6.44049-1.62855-.66825-4.03775-1.10514-5.67277-1.8945-1.99182-1.14622-2.88288,1.65446-3.88853,3.33053-.93423,1.51173-2.55625,1.89886-4.23668,1.96588-3.08834.11032-7.39643-.3006-8.90381,3.0797-.91912,3.48408-4.62819,5.5646-7.53048,7.16929-.68343.33089-.76996.03462-.45632-1.11593,2.37026-4.82279.6466-9.10927-4.87259-9.92242-8.02357-.3201-10.62529,9.56341-16.5251,13.56873-1.7193,1.31706-3.76953,1.99182-5.18398,3.60737-1.60255,2.16484-1.79718,4.38376-4.22156,5.04987-.36115.09732-.71802.27466-1.05323.44553.03676-.08435.14276-.09735.22928-.15791,2.22757-2.36379,2.02422-5.8717,3.65924-8.55774,1.00564-1.89671,2.53902-3.41923,4.33403-4.32538,1.00564-.56447,2.14104-1.19166,2.09346-2.42438-.40438-3.49926-5.25532-3.89503-7.9738-5.10613-2.48708-1.10946-3.9837.68558-5.88252,2.18434-5.40455,1.60037-7.68406,4.79682-11.13573,9.01842-1.33221,2.98235-2.43085,4.95473-4.9244,6.98116-1.66314,2.0394-3.54467,3.98152-6.24585,4.42488-2.59308,1.40574-5.06722,3.3435-7.23856,5.3137-.88671,1.05541-1.2414,4.07669-3.0494,3.80636.29416.22925.51909.52985.46933.86506-.09946.70937-1.94212.74181-1.87935,1.94212l1.80583,1.56146c-.83695.32007-1.55278.85642-2.32921.19031-.4715-.36765-.03247-1.62202-.49097-2.24272-.14487-.16437-.56661-.15355-.62931-.28116-.17299-.45632,1.00135-1.79936,1.53767-2.51305-1.24786-.6769-1.56579-1.8318-2.40709-4.13289-1.05541-2.39841-4.58272-2.4222-6.06851-4.25833-1.21757-1.23707-1.97881-3.22674-3.72848-3.84744-2.06534-.76342-4.88982-.53203-6.82758.47147-1.74531.9278-1.6372.06273-3.20727-2.02861-8.09062-7.34449-10.40043,2.73148-13.18378,8.48425-3.15969,3.87338-8.6767,9.73643-4.47032,14.83174l.11246-.03029ZM492.40153,182.21289l1.2414.55585-.37633.84342c-.68772-.14705-.76342-.55796-.96235-1.18299l.09728-.21628ZM579.92571,129.573l2.68172.71802-.91701,2.05458-2.32492-1.51391.56021-1.25869ZM578.14793,112.26932l1.24133.55364-.17728.39795-1.24146-.55364.17741-.39795ZM564.20501,135.59178c-.79794-.25737-1.20886-.54067-1.35815-1.36251l.09517-.2141,1.64155.73102-.37858.84559ZM569.1079,120.19557c.32657-.11246,1.08781.90186.96017,1.18516-.3395.76128-1.78847-.04326-.96017-1.18516ZM562.98956,128.25379c-1.34086.73313-2.96288-.30713-2.22315-1.74531,1.02723.4585,2.04152.59258,2.22315,1.74531ZM478.14293,193.37457s-.72237-1.27598-.86724-1.39927c-.65749-.57097-2.11082-.52338-1.3171-2.07834.78289.28981,1.52038.7786,2.31839,1.03594.13411.05841.44339-.27898.57532-.22057,1.25651.30274,2.24051,1.21757,2.65796,2.41785-1.27169.4455-2.14111,1.18952-3.37597.26169l.00865-.01729ZM488.26213,180.84392c-.80883-.10164-1.26298-2.33135-2.16269-2.45464l.55367-1.24354c.91912.56879,4.47679,1.45982,4.31027,2.67739-.13847.89103-2.03294.86077-2.70772,1.03812l.00647-.01733ZM502.77166,171.3043l.37627-.84559c.83266.27248,1.42527.63581,1.26522,1.57658l-1.64149-.73098ZM509.50413,157.28142l.21622.09514.34822.9105-1.12675.25304.56232-1.25869ZM516.95673,168.01485l.02594.07138s-.75478-1.28898-.86506-1.39927c-1.91611-1.449-3.12722.91047-3.8647.78072-.66178-.07785-1.57014-.80019-2.32056-1.0359.23786-1.60258,1.57443.16652,2.29892-.74181.81101-.97106.04112-2.00914-.984-2.20813l.55579-1.24136c.54285.34168,1.40145.46497,1.87288.8348.13193.05838.75478,1.29113.86506,1.39924,1.69554,1.23275,2.68389.44336,3.72419.64881,1.31274.26601,1.96806.97756,2.25998,2.24057-1.04241,1.40141-2.07399,1.7561-3.55331.6596l-.01511-.00865ZM525.61396,156.40121c-.48655-1.62637-2.44167-3.61172-3.53596-1.51823l1.54414.94727-1.93129.36983-.84559-.37633c-.28334-1.41656-2.03294-.9667-2.50226-1.11593-.75042-.23575-1.53549-.74613-2.32056-1.03594l1.58097-.78504c.59473.5839,2.26651.53417,2.77907.00865.3698-.47147-.08006-.89103-.02165-1.02297.06052-.13193.46715-.11029.57526-.22061.20117-.22707.17734-.61634.37851-.84345.55361-.66611,2.29456.11032,2.99746.58179.13411.05838.05405.46065.22057.57526.17952.17952.56668.15355.62938.28116.04541.11893-.28116.41092-.28116.62934.09517,1.21328,3.18563,2.75095.73313,3.5252ZM527.14952,141.33157c.94506-.6899,1.43167.04323,2.15405.20546.18163.08217.42167-.22925.57526-.21846.55579.08867,1.26087.78075,1.19381,1.2868-.20981,1.67393-4.35568-.39359-3.92311-1.2738ZM530.44326,148.56146l-1.24351-.55367.37627-.84559c.43903.35468.37198.86074,1.06623.95373l-.19899.44553ZM531.42078,141.46998l-.0497-.02379s-.67908-1.5939-.3698-1.93129c1.10511-1.27598,4.49837,1.62852,3.53596,3.34353-.83695-.53203-2.45032-.8348-3.11646-1.38844ZM540.04561,129.30484l.37851-.84563.39791.17734-.37844.84563-.39798-.17734ZM546.34116,152.65541c-.26598-.11893-.08857-.51688.17741-.39791.26598.11893.0887.5147-.17741.39791ZM558.56478,123.55857l-.37633.84559c-.61631-.53417-1.18734.16655-1.65225-.25951-.31152-.2379-.38504-1.18516-.07577-1.5247l2.10435.93862ZM549.41004,132.94464c.44128.57311.70937.95159,1.46415,1.13108l-.57737,1.29113c-.83055-.05188-1.51391-2.1259-.88678-2.4222ZM547.54804,137.1208c1.25651.65964,2.70548,1.10732,3.96199,1.76692.68997.36765,1.26298.50391,1.09653,1.50309-1.58532-.76778-3.2505-1.35168-4.80547-2.14325-.66396-.29627-1.05547-.88886-.25304-1.12675ZM534.68647,154.72728c.63149.49955,1.11811,1.19381,1.80801,1.56146-.23569.74828-1.62631-.18817-2.05023-.43903-.77425-.40442-1.43821-.3828-1.59172-1.46415,1.00564-.56447,1.07488-.27466,1.81665.33307l.01729.00865ZM529.96964,157.37224l1.64149.73098c.36769.95809-3.37379,1.5939-1.64149-.73098ZM546.15953,120.01176c-.49302,1.33003-1.54203.96024-2.64278.31142.49315-1.33007,1.54203-.96241,2.64278-.31142ZM542.2386,123.76618c.79372.13626,1.47497.65746,1.59179,1.46415-1.07706.63367-2.23628.11464-2.50226-1.11593.27463-.0368.70719-.38066.91047-.34822ZM535.49748,123.20171l-.02376.04976c1.37544.39359,2.31621,1.13325,3.90364.25087-.0757.88021,1.03376,1.37548,1.09646,1.50305.04541.11897-.42167.72452-.45844,1.02729-.04547.2379.46708.64449-.06059,1.20463-.46933-.14923-1.04023-.56447-1.47497-.65746-.18163-.0822-.88018-.0757-1.41874-.15787-.13405-.05841-1.70637.57093-2.1951.51038l-.39791-.17734-1.48579-2.90664c.10164-.80886,1.85559-.82183,2.53038-.64017l-.01518-.0065ZM534.05062,127.64388l-.0497-.02379c.62713.37848.56014.88671,1.29763,1.05759l-1.58097.78289-2.46543-.08653c-.41745-.97971-.46504-2.07402.08864-2.96073.8586.4823,1.90965.75263,2.71848,1.21328l-.00865.01729ZM522.91713,133.9395c.09728-.70937,1.35597-1.47929,1.86206-1.41224.40227.07999,3.41702,1.42521,3.74577,1.66957,1.01865.83266-.3698,1.7626-1.33003,1.91182-.10382.01082-.29198-.19031-.39791-.17949-1.06623.12111-1.90536.44336-2.87859-.27034-.13193-.05841-.99918-1.45765-1.01647-1.68475l.02165-.04973-.00647.01515ZM523.75626,122.57237c.72448.06706,1.39491-.01297,2.04805.43903-.97535.89536-1.9767.82616-3.05587.12543.38498-1.21757.37844-.62502,1.00782-.56447ZM511.75328,137.76097c.72666.42389,1.4058-.16655,2.05023.43903.16005.12976.0887.5147.22064.57526,1.14622.76992,3.02993,1.09217,4.19345,1.87074.13193.05838.06052.44336.22057.57311.56661.51256,1.61555.56447.91918,1.901-.63155-.49959-.99489.09299-1.65231-.25951-.66178-.29631-.5342-.71587-.66825-.77425-1.35604-.92347-3.63119-1.30195-4.98717-2.22542-.1817-.08217-.06923-.82616-.84995-.85642l.55361-1.24354ZM507.12734,154.23416c-.1817-.08217-.37204-1.07917-1.29763-1.05537l.02158-.04973,1.58314-.78507c.35033.41524.79154-.08217,1.02294-.01947,2.70983.51256,1.61119,3.91664-1.33003,1.90965ZM503.7643,152.19694l1.81883.33521c.27469.71802-1.57872,1.26301-2.1951.51038l.37627-.84559ZM514.92597,126.10406l-.37633.84559-1.24351-.55364s1.20892-.79372,1.61984-.29195ZM511.57165,133.62804l-.37851.84348-1.24133-.55367.37627-.84559,1.24357.55579ZM514.35283,122.8492l1.24357.55364-.37844.84563c-.68779-.14923-.76342-.56014-.96024-1.18516l.09511-.2141ZM497.76285,164.00307c.13193.05838.11029.46497.22057.57526.22711.20114.66614.19681.84566.3763.16005.13193.10164.4823.21839.57529.11029.10814.33739.09085.39798.17734.62502.87371.88236,2.69904,1.10946,3.75227-.58826.11461-1.07488,1.07052-1.6869,1.01647-.55585-.08867-.94512-.64017-1.75613-.02812.32221.83913.45197,1.75177,1.41438,1.86206.20546.03244.44339-.27898.57532-.21843,1.34086.33739,3.52731,1.67178,2.80929,3.27865l-4.53513-1.54632-.03676.08217c-.7029-1.76474-5.01317-1.32142-4.05293-3.83444.93212.31789,2.45685.46065,2.84183-.75696l-2.2211-1.74745c1.13976-.50391,2.10864.30492,3.25697-.57311-.12976-.91265-.50391-.9213-1.19381-1.2868-1.07481-.57961-2.83741-1.16784-2.45897-2.86556.7656-.51256,1.02082-.24008,1.75613.02812.68554.24654,1.95941.77425,2.5022,1.11593l-.00647.01733ZM510.82552,126.30084c.13622.3201-.91918,1.08135-1.18516.96241-.76125-.33954.06706-1.8383,1.18516-.96241ZM501.73354,142.27234l1.24357.55364-.37633.84563-1.24351-.55367.37627-.84559ZM495.63263,158.08593l-.37633.84563-1.24357-.55582s1.20899-.79154,1.61991-.28981ZM481.9644,189.79531l.04976.02165-1.93347.3698-1.01647-1.68472,1.48579-.56879,1.41438,1.86206ZM478.89335,186.65727l-.55361,1.24351c-2.05023-.43903-2.58879-2.70554-.09088-2.06752l.026.07135,1.15269-1.51173c2.1454.57961,1.5312,3.02564-.5342,2.2644ZM478.5452,182.98503l.17734-.39798.84559.37851-.17734.39574-.84559-.37627ZM492.22854,154.5802l.37844-.84345.3958.17734-.37633.84345-.39791-.17734ZM495.27794,151.13289c-.88671.55796-1.50526.12326-2.37033-.30278l.55579-1.2414c.89325.39795,1.63931.51256,1.80589,1.56146l.00865-.01729ZM504.95811,127.16162c-.17516.61637-.73095,1.28248-.83477,1.87071-.04759.2379.69637,1.06623-.55585,1.24357-.56443.06488-.85853-.12543-1.33868-.33954.68125-1.30413.92783-3.63766,2.73584-2.79204l-.00653.01729ZM489.62246,155.88215l.84566.3763-.06059,1.20463c-.59908.27034-.97106.48226-1.52467.07567l.7396-1.6566ZM483.07386,175.0133l-2.04376-2.14322c1.59172-.94077,2.57143.8283,2.04376,2.14322ZM478.13646,156.99594l-.85648.84995-.02158.04973-1.24357-.55364c.40009-.89536.51256-1.63934,1.5615-1.80801l.56879,1.48576-.00865-.02379ZM481.82164,146.42038l-1.24351-.55364.55361-1.24357c.85431.22278,1.17652,1.06191.6899,1.79722ZM487.61553,128.4441c.2638.11893.08646.5147-.17734.39791-.26605-.11893-.0887-.51688.17734-.39791ZM482.49861,138.22162l.02158-.04973c.44339.29627.76342.33954,1.20463.06056l.25304,1.12458-1.63931-.73098.17734-.39791-.01729-.0065ZM474.26305,161.08992c-.3958,1.11378-1.29763,1.1289-2.1951.51038.39791-1.11378,1.29974-1.12893,2.1951-.51038ZM463.97515,153.9963l.37844-.84563,2.08699.93212-.37627.84563-2.08917-.93212ZM463.39118,159.71659l.15787-1.42088,1.63931.73316c-.22275.85427-1.0597,1.17434-1.79718.68772ZM470.12365,149.21024l-.55367,1.24357-.2314-.10382c-.57743-1.11164-.3698-1.93344.78507-1.13976ZM463.04303,173.54701l-.07141.02812-.39791-.17734c-.32221-.83913-1.41874-1.22839-.72019-2.34868l2.6969.19031c1.02947,2.00914.49309,2.14754-1.50738,2.30759ZM468.15995,161.36673l.17734-.39791,1.2414.55364-.17734.39791-1.2414-.55364ZM472.73402,156.63261l-1.39927.86506.04976.02379c-2.18434.35468-4.78389-.904-3.53384-3.34568.56661.51038,1.0727.00218,1.20463.06056.66607.19896,1.84477.76342,2.4849,1.10946.69208.36765,1.00135.38495,1.19381,1.2868ZM472.98271,145.51852c.26605.11897.0887.51688-.17734.39795-.2638-.11893-.08646-.51688.17734-.39795ZM474.52038,151.64759l-1.24133-.55364.17734-.39791,1.24133.55364-.17734.39791ZM478.23375,138.78176l.84559.3763-1.22193.46929.37633-.84559ZM476.52738,141.53703c-.6142,1.87071-3.64631.02162-4.91146-.70072-1.86424-.99053-1.26516-2.33353.35468-1.86856l-.07135.02812c.85424.22275,2.53896,1.03376,3.34779,1.49226.62502.37844.55803.88668,1.29763,1.05755l-.01729-.00865ZM476.78478,129.11453s.44114-.27898.57526-.21843c1.43821.3828,1.93994,1.61984,3.38462,1.98535l-.55367,1.24354-5.43702-2.42438c.48233-1.43603,1.27598-.72234,2.03082-.58608ZM450.01712,184.08578c-1.34086.7332-2.96288-.3071-2.22328-1.74524,1.02729.45844,2.04158.59255,2.22328,1.74524ZM457.52813,147.60336l-1.19381-1.2868c1.12675-.60987,3.41273.23143,3.24404,1.72584l-2.05023-.43903ZM457.61895,155.90809c1.74966-1.02726,3.19216-.34168,3.24404,1.72584l-3.24404-1.72584ZM465.29654,142.52753c.72666.06488,1.39709-.01297,2.05023.43685-.64449,1.58093-1.91829.69422-3.05587.12761.38491-1.21975.37844-.62717,1.00564-.56447ZM460.69864,153.54862c-.997-.66396-2.00482-.67693-3.10992-.9105.22057-1.07484-.02383-2.35518,1.55925-1.80801.88242.29413,2.21681,1.62416,1.56796,2.72498l-.01729-.00647ZM465.49117,136.61257c.61637.5342.02594,1.72151-.30281,2.37033-1.6436-.63584-1.39491-3.8215.30281-2.37033ZM476.57061,100.01551l3.56849,2.06752-.75267,1.69125-2.71848-1.21328c-.36115-.25951-.40874-2.42656-.09735-2.54549ZM473.64885,94.71692c.8586.12543,1.12893,1.29977,2.14322,1.43385l-1.58308.78507-.04976-.02379-1.69336-1.23275c.06706-.50606.78072-1.04026,1.18299-.96238ZM442.78074,150.99881c.80672.45847,1.93129.70287,2.71637,1.2111.13405.06056.08864.51688.22057.57526.7656.56014,2.09564.558,1.31928,2.07834-1.14622-.76989-3.43867-1.15701-4.35785-1.94423l-.02376.04973c-.4715-.36983-.26605-1.449.1254-1.9702ZM420.82514,150.28294c-1.75831-.24654-1.12464-2.64713.08428-2.46547.59044.10382.48233.97106,1.29763,1.05541-.15352.56879-.72231,1.48576-1.38191,1.41006ZM443.42305,146.79453c-1.99182.50173-3.76306-.06923-3.18563-2.43303l2.49791.63581c2.00482-1.28895,2.80071,1.25004.68772,1.79722ZM443.92267,131.06526l.02158-.04973,1.87295.8348-.75267,1.69122-2.22321-1.74745,1.08999-.74613-.00865.01729ZM431.51096,158.30868c.72448-.90833.3201-1.78421.35686-1.86856.05841-.13193,1.08135-.15137.65743-1.47279l1.94212,1.87939c.37633.58394.77643,2.31192.09735,2.54549,0,0-.41092-.28116-.62938-.28116-1.23704.1449-2.2708,1.39277-2.40709,1.42953-.19246.07356-1.3668-.76775-1.87288-.83477-.23786-.04544-.96888.48226-1.22193.46929-1.86206-.23575-1.71712-3.5879.64885-3.72415.6596.0757,1.16998,3.34353,2.43732,1.84045l-.00865.01729ZM444.38764,119.50999c1.10728-1.05537,2.62331-1.82744,3.99017-2.70983-1.83612,1.84477-3.05587,4.71683-5.03257,5.76141-1.01865.49959-.79807-1.6869,1.04241-3.05158ZM438.50941,128.59115c.89107.1384.88242.65096,1.19381,1.2868,1.47279,3.15969-2.88282,1.65446-2.64278.31142.10382-.5904.75478-1.69122,1.46632-1.59172l-.01736-.0065ZM422.38011,161.9831c-.77643-.66396-1.85341-.03244-2.49791-.63584,0,0-.05841-.4455-.21846-.57526-.17952-.17952-.56879-.15355-.63149-.28116-.04541-.12111.26169-.36115.28116-.62934.03023-.42389-.52985-2.4222-.40663-2.4287,2.03729.69208,4.6736,2.08484,3.47332,4.55031ZM429.72678,128.18887c.99046.18384,1.92476,1.29545,2.25998,2.24057-1.84695.66611-3.36297.36548-3.74577-1.67178.41738-.09082,1.23057-.62284,1.48579-.56879ZM416.74845,149.97584l-.55367,1.2414-2.32485-1.51388,2.87853.27248ZM412.81234,158.66769l-.15787,1.42088c-.93648-.04109-1.07917-.91912-1.29763-1.05537l.04976.02162c-.69855-.57093-1.914-1.23057-2.75531-1.70637l-.65096-1.30192c1.91829.5969,2.91965,2.09564,4.812,2.62116ZM418.12178,125.47472l2.08699.93212-.37633.84559-2.08917-.93212.37851-.84559ZM400.54338,149.77903c2.3271.65964,3.65713.39795,6.21127,1.75613,1.71283.92344,1.47708,2.21024-.35686,1.86856l.07141-.02812c-.68779-.14923-3.56414-.51688-3.72419-.64881-.75042-.59258-1.17434-.8413-1.91182-1.32789-.20975-.15355-.37198-1.08135-1.29763-1.05541-.40438-.87589.39145-.74181,1.00782-.56447Z"/><path class="cls-1" d="M588.40553,12.8807l-.04541-.11897c.44986,3.39976.86077,6.80167,1.30416,10.25764l.2508,1.97888c2.84619,21.99024,5.80035,44.72444,7.79435,67.28997,1.05323,11.89262,1.77131,22.62391,2.14764,32.78423.32657,9.066-1.53556,18.04984-5.45002,25.97823-5.95387,12.1457-16.86897,22.49415-33.40067,31.6683-4.25833,2.37251-8.73723,4.48761-13.08201,6.5616-2.96723,1.39927-6.02964,2.87206-9.02499,4.41838-7.95869,4.07887-15.46752,8.79352-22.27787,14.0402-6.94875,5.28562-13.34595,11.25249-19.0706,17.7168-3.21374,3.59437-5.83929,6.85352-8.01063,9.9375-1.00993,1.41663-1.90965,2.94347-.75907,4.6866.3071.51473.8283.90618,1.40791,1.16569.84559.37627,1.82959.43903,2.66871.11675,1.33221-.57743,2.57361-2.42656,3.55549-3.91664.34168-.54278.67908-1.0294,1.01-1.41656,10.00245-12.84204,22.48544-23.72255,37.0642-32.21973,5.51048-3.26351,11.33037-6.10963,16.99225-8.86923,8.68971-4.28862,17.73621-8.75676,25.81171-14.65222,14.76039-10.81778,24.36922-24.47086,27.73865-39.41721,2.04165-9.12224,1.47708-18.41317.95159-27.3905l-.07141-1.04458c-.56008-9.16979-1.32568-18.80891-2.36808-29.52505-1.89671-19.22418-4.4422-38.99332-6.68053-56.38352l.0367-.0822-.20328-.03244c-1.4685.04109-2.22104-.9905-2.3141-1.98535-.106-.96024.38927-2.07184,1.78425-2.30327l.1687-.02379-.02376-.16866c-.45421-3.30245-.83701-6.63298-1.29981-9.9181-.03683-.49312-.11458-1.16355-.12764-1.9832-.17516-3.07966-.49526-7.75108-2.53467-9.41637-.63149-.49955-1.38838-.71802-2.25126-.56661-.84137.10164-1.51391.49741-1.99624,1.1354-1.5312,2.1389-.66832,6.75409-.04752,9.81431.14058.75692.26809,1.449.35468,1.96588l-.00224-.08217Z"/><path class="cls-1" d="M540.4457,465.91042c.13411-3.41702-4.76006-4.4292-8.32631-5.16451l-.05194-.24222c-.99053-.18381-1.96806-.40009-2.67525-.5969-3.04076-.97971-5.70736-1.95076-8.06033-2.99964l-.39798-.17734c-7.10227-3.22892-13.44112-7.3272-18.84996-12.08515-15.69898-13.89744-24.5725-33.86775-25.71007-57.77847-.33521-7.04386-.23793-14.21101-.12111-21.15323,2.56707-47.13153,3.96634-97.66497-20.24065-131.1521-.28552-.4261-.59044-.8586-.91701-1.28251-.03241-.01511-.03458-.05623-.06052-.08646-.99053-1.25658-2.09999-2.46768-3.03858-3.48197-.5212-.60984-1.05541-1.10511-1.38415-1.57008-2.64931-3.14893-5.44996-6.22638-8.32637-8.99898-5.78953-5.68353-12.20401-10.94757-19.08142-15.6644-7.61265-5.20556-15.97579-9.31255-24.03829-13.28754-7.32284-3.58361-14.88797-7.33584-21.89507-11.85157-.67479-.40227-1.37762-.87371-2.17998-1.35168-2.28598-1.37762-4.75795-2.91747-6.6373-4.62816-.00218,2.50008-.03029,5.01096-.2444,7.49804,8.41937,6.15933,17.71462,10.84375,26.73737,15.38542,7.11738,3.55331,14.45323,7.24285,21.2917,11.64394,7.78135,4.96116,14.89873,10.65987,21.20082,16.88844,3.08187,3.02346,5.99934,6.1918,8.61836,9.40772,1.31492,1.59819,2.65578,3.26997,4.00964,5.04558.15569.22922.37844.48655.51256.76554.32221.48015.66825.99271,1.06188,1.44685,17.15659,25.018,19.73885,67.51276,18.30071,113.49806-.04759.01947-.12111.04541-.1687.06488.10593.20546.14923.42385.15134.64231-.00211,3.47761.06488,7.02439.10171,10.41765.28327,16.73492.56872,34.04727-5.31162,50.07929-5.46943,15.02208-15.90444,27.98959-29.39961,36.55165-6.1788,3.91882-12.70799,6.92711-19.41228,8.90381-.86513.24869-1.85559.46279-2.80507.67479-1.58519.30492-3.22886.6466-4.59572,1.30627-1.5679.7526-2.54331,2.22539-2.3962,3.68089.11893,1.06617.76554,1.89018,1.875,2.38544.26605.11893.57961.25951.93212.31574.28769.06923.61208.05623.95812-.00865.17081-.02383.32439-.01518.48008-.00436,11.49907.32228,23.19917.19681,34.51871.08006,5.62519-.05194,11.43848-.12111,17.08525-.12547,10.78752.00436,19.86867.00218,31.24009-.01082l29.85811-.03023c3.51008.01511,7.00928-.03247,10.53665-.00865.32439-.01518.62502.02158.94941.00647,2.38326.04976,5.12557.14058,5.86523-2.94558l.04105-.00218ZM508.45301,461.94837l.02812.07352-4.33185-.00429c-10.19279,0-20.41799.02812-30.57395.02812-.95806.01076-1.92483-.00436-2.93265-.01736l-1.44679-.00865c-5.18187-.00865-10.30743-.00865-15.47405-.00865-5.18187-.00865-10.30743-.01076-15.49141-.01729-1.05105-.05188-2.12593-.84995-2.4222-1.87506-.23786-.80236.06923-1.57872.91701-2.05452,16.00826-9.78616,27.89224-24.35192,34.40843-42.16601.28981-.78507.984-1.26951,1.88582-1.24569.80454-.01729,1.78207.41738,2.10864,1.37762,6.38643,17.53075,18.41317,32.35384,33.92181,41.77456.54285.34168,1.47715,1.09646,1.26522,2.3335-.12547.85642-.99053,1.86213-1.88589,1.82101l.02376-.01082Z"/><path class="cls-1" d="M346.20147,118.7639c.00211-.49526.05405-1.01.09728-1.50741.05623-.35036.09735-.70937.08435-1.03376.20981-4.07884.49744-8.42151.83695-13.23569,1.44039-19.97892,3.7393-39.6551,5.54302-54.56469.94941-7.74244,1.95076-15.64057,2.92394-23.21217l.60337-4.69736c.18817-1.62416.51473-3.2873.77425-4.93958.57097-3.42138,1.17223-6.94658,1.20034-10.35281.03023-.42389.07999-.7591.14269-1.16784.18388-.99053.35039-1.98753-1.04241-3.18566-1.14187-1.04673-3.60519-.91483-4.69954.24654-1.09428,1.16137-1.30627,3.908-1.4295,6.09881-.05412.61202-.06059,1.2046-.13847,1.64581-.48873,3.99449-.98182,7.94572-1.52031,11.91856-3.91882,30.8335-7.96958,62.76131-9.71917,94.34308-.00865.15573-.04323.27902-.07788.40227-1.99828,29.10766,8.71782,49.72243,28.45027,64.32492l.24651-7.49804c-13.89315-11.48389-20.81155-29.82785-22.25193-53.59366l-.02376.00868Z"/><path class="cls-1" d="M300.05394,805.6563l-10.34195-41.46535h-9.66723l-10.46748,41.46535-10.95186-41.46535h-9.24767l15.30107,55.98128h9.92028l10.27925-40.75163,10.13003,40.75163h9.81646l15.63846-55.98128h-9.33202l-11.09897,41.46535h.02165Z"/><path class="cls-1" d="M352.43432,764.21048h-8.91246v55.9834h8.91246v-55.9834Z"/><path class="cls-1" d="M416.01314,805.719l-26.31563-41.50852h-9.81646v55.9834h8.87134l-.19034-41.84591,26.54709,41.84591h9.48124v-55.9834h-8.76541l.18817,41.50852Z"/><path class="cls-1" d="M452.13005,820.17222h38.33807v-8.54041h-29.49049v-15.73799h25.83336v-8.54041h-25.83336v-14.62193h29.49049v-8.54054h-38.33807v55.98128Z"/><path class="cls-1" d="M585.68488,792.61309c-1.84906-1.09441-3.92965-1.99835-6.20045-2.69254-2.18645-.67267-4.41395-1.17876-6.62219-1.6632-2.60595-.60984-5.16873-1.23922-7.58671-1.93341-2.14316-.56879-3.84741-1.47273-5.10828-2.56714-1.02934-.90618-1.57661-2.22975-1.57661-4.03987,0-1.57872.42174-2.90229,1.24146-3.9967.90394-1.17863,2.08046-2.1454,3.69812-2.79854,3.09052-1.32568,7.63001-1.36673,11.03627-.37844,1.47061.41963,2.75313,1.09441,3.8453,1.89235.98829.82183,1.74531,1.81025,2.2708,3.02993.52549,1.24146.75689,2.69254.67254,4.41844l-.14705,2.75524,8.86923-1.57661v-1.7886c.08435-4.01822-.84124-7.51094-2.75313-10.14078-1.91176-2.65149-4.41395-4.64984-7.52401-5.93222-6.07491-2.46114-14.69334-2.46114-20.38981.14705-2.98452,1.36673-5.35921,3.32403-7.08287,5.78517-1.74531,2.50444-2.60595,5.51272-2.60595,8.87781,0,3.02993.71359,5.59707,2.0394,7.63648,1.32357,1.93565,3.08828,3.57707,5.21203,4.7557,1.99624,1.13547,4.26704,2.03954,6.68489,2.69267,2.33139.67254,4.64337,1.17863,6.95733,1.66307,2.35304.52549,4.64337,1.09217,6.82982,1.70201,1.914.56879,3.42567,1.36897,4.49843,2.42009.90394.84124,1.36686,2.0827,1.36686,3.78682,0,1.59826-.42174,2.94558-1.26087,4.03987-.90407,1.17876-2.27093,2.0827-4.11999,2.75537-3.93176,1.43167-10.57335,1.51602-14.94414-.14705-1.99835-.75702-3.42791-1.914-4.35139-3.44956-.94723-1.57872-1.28251-3.74577-1.00993-6.43831l.33739-2.69254-8.80864.94723-.14705,1.80801c-.27258,3.17698,0,6.01657.90394,8.49936.90407,2.50444,2.35515,4.64984,4.26704,6.29126,1.89235,1.66096,4.32961,2.94558,7.10438,3.74366,2.69043.82183,5.84365,1.17863,9.24991,1.17863,4.45514,0,8.3436-.67254,11.47517-1.93552,3.25922-1.32581,5.84365-3.26146,7.52612-5.74201,1.74319-2.52609,2.60608-5.45002,2.60608-8.83675,0-2.90453-.56879-5.36568-1.74531-7.30119-1.15487-1.93565-2.75313-3.51226-4.74924-4.69089l.0627-.0627v-.0433l-.02165.02165Z"/><path class="cls-1" d="M651.72484,787.39446h-25.59972v-23.20352h-8.82817v55.98128h8.82817v-24.25675h25.59972v24.25675h8.87134v-55.98128h-8.87134v23.20352Z"/><path class="cls-1" d="M728.55226,771.25863c-2.12151-2.60819-4.74924-4.60654-7.71211-5.9734-2.98664-1.32568-6.34974-2.04152-10.04786-2.04152-4.64548,0-8.87134,1.13547-12.52853,3.36521-3.69812,2.23186-6.59829,5.59694-8.68099,9.97209-2.03729,4.27139-3.08828,9.59377-3.08828,15.84174,0,4.08316.4822,7.93268,1.47061,11.2979.98829,3.51437,2.5022,6.60701,4.4983,9.1525,2.03954,2.67089,4.64548,4.69089,7.67106,6.12257,3.02782,1.42956,6.64383,2.18645,10.69888,2.18645,4.05729,0,7.63001-.71359,10.67934-2.18645,3.02571-1.43167,5.5906-3.51437,7.63001-6.08151,1.99611-2.56701,3.51002-5.63812,4.49619-9.15025.94737-3.40851,1.42956-7.17368,1.42956-11.15085,0-4.41844-.56654-8.43666-1.66096-12.05492-1.13322-3.66142-2.75313-6.77346-4.83358-9.36225l-.04105.0627h.04105-.02165ZM695.38523,792.34051c0-4.46161.67267-8.28961,1.93354-11.38225,1.23922-2.98875,2.98439-5.17533,5.25532-6.73241,2.3335-1.51391,4.98063-2.27304,8.1555-2.27304,3.17262,0,5.96905.75913,8.25925,2.33574,2.2708,1.57872,3.99446,3.78682,5.21427,6.77359,1.28027,3.09263,1.91176,6.87945,1.91176,11.34106,0,4.45949-.60984,8.1621-1.84906,11.19203-1.17863,2.94558-2.83748,5.09098-5.10828,6.62641-2.2275,1.51602-5.10828,2.27304-8.49065,2.27304-2.46114,0-4.68878-.42174-6.53784-1.28463-1.84919-.84137-3.36297-2.02-4.64548-3.65931-1.28251-1.60037-2.3335-3.74577-2.98452-6.20691-.71373-2.56714-1.09217-5.59707-1.09217-8.96215l-.02165-.04118Z"/><path class="cls-1" d="M800.03789,775.38284c-1.05112-2.48266-2.60608-4.56536-4.64548-6.20691-1.99611-1.66307-4.41409-2.90229-7.16708-3.74577-2.69043-.81959-5.78095-1.23922-9.16557-1.23922h-18.1169v55.98128h8.86923v-17.2713h7.50461c5.21203,0,9.62611-.759,13.13613-2.18856,3.65707-1.51391,6.45349-3.74577,8.34373-6.62654,1.85117-2.9044,2.79629-6.41666,2.79629-10.43501,0-3.02993-.52549-5.78517-1.57661-8.20513v-.0433l.02165-.01954ZM789.25466,791.58151c-2.5216,1.81012-6.34749,2.69254-11.43412,2.69254h-8.00845v-21.52105h8.91252c4.87688,0,8.53394.90407,10.76145,2.69267,2.14329,1.70412,3.17487,4.27126,3.17487,7.82669,0,3.934-1.15698,6.62654-3.40627,8.2875v.02165Z"/><path class="cls-1" d="M170.47416,764.77927h10.41336l23.03047,56.85499h-10.86969l-17.71027-45.89013-17.63457,45.89013h-10.64047l23.41116-56.85499ZM159.30167,800.35543h31.69424v8.85193h-31.69424v-8.85193Z"/></svg>