<?xml version="1.0" encoding="UTF-8"?>
<svg xmlns="http://www.w3.org/2000/svg" viewBox="0 0 512 512">
  <rect width="512" height="512" rx="64" ry="64" fill="#5c1835"/>
  <g transform="translate(40, 182) scale(0.376)">
<path class="tl" d="M379.42242,193.34901c1.64367,10.55394,6.09894,15.80914,13.40884,15.80914.75689,0,1.57872-.17292,2.40056-.28116-5.68789-1.23262-9.19144-6.37983-10.59724-15.52798l-.30281-3.63344V7.90681h-5.2119v181.80876l.30254,3.63344Z"/><path class="tl" d="M204.46091,23.54092c-5.38508.52562-10.42432,1.46415-15.05251,2.8677-17.02037,5.50626-30.73176,13.58612-41.09113,24.36064-4.69287,4.68442-9.36436,10.89134-13.99255,18.57098l-3.04947,5.49332-1.23262,2.46537c-2.05445,4.67149-4.04422,10.94321-6.07729,18.9019-1.23262,5.27697-1.81659,11.37578-1.81659,18.27477,0,8.95371,1.23288,17.97196,3.63344,27.1201,4.67122,16.63123,13.99255,31.68348,28.02839,45.09232,8.32631,8.30466,19.50752,14.61955,33.50007,18.83696,5.10392,1.64367,9.90503,2.76831,14.46854,3.35201,4.56325.58397,9.71046.93007,15.39835.93007h5.2119c-5.68789,0-10.8351-.28116-15.39835-.93007-4.58489-.5837-9.38601-1.70835-14.46828-3.35201-13.99255-4.26044-25.17376-10.5323-33.50007-18.83696-13.99255-13.40884-23.35717-28.41779-28.05004-45.09232-2.44385-9.14814-3.61179-18.1664-3.61179-27.1201,0-6.89899.58397-12.9978,1.81659-18.27477,2.03307-7.89374,4.02257-14.23041,6.07729-18.9019l1.23262-2.46537,3.04947-5.49332c4.67149-7.73812,9.29941-13.88655,13.99255-18.57098,10.35938-10.77452,24.07076-18.85438,41.09113-24.36064,4.69314-1.40356,9.73211-2.40056,15.05225-2.8677,4.39033-.41092,9.77541-.64442,16.04726-.7029h-.69195c-8.32657,0-15.18213.23364-20.56721.76138v-.05848Z"/><path class="tl" d="M30.10476,203.08112c1.81659,0,3.50355-.17292,5.2119-.54067v-76.71059c-1.70835-.21648-3.39531-.28116-5.2119-.17318v77.42445Z"/><path class="tl" d="M553.90847,206.58467c-8.54252-2.09775-16.97707-5.45002-25.30338-9.88365-14.4036-8.15312-25.86597-19.26939-34.43014-33.50007-8.54252-14.23041-12.75993-29.3476-12.75993-45.39487,0-3.20074.17318-6.37983.58397-9.40765.41105-3.04934.95172-6.40148,1.53543-10.07808,3.61179-16.86897,11.46237-31.85653,23.42212-45.08995,7.07204-7.90681,15.33341-14.28889,24.63308-19.20695,6.92051-3.63106,14.36004-6.38419,22.3838-8.19866,7.07204-1.63931,14.03585-2.45903,20.89167-2.6342-.82183,0-1.64367-.05834-2.4655-.05834-7.72096,0-15.57154.93641-23.59504,2.75088-8.0235,1.81672-15.44165,4.5676-22.36215,8.1988-9.36462,4.85959-17.56104,11.24166-24.65473,19.20682-12.00304,13.17507-19.78868,28.22745-23.42212,45.09642-.5837,3.61179-1.10273,7.0071-1.51378,10.05657-.41078,3.04934-.58397,6.20691-.58397,9.4293,0,16.04726,4.28209,31.16445,12.82488,45.39487,8.54252,14.20903,20.02654,25.34668,34.42988,33.47842,8.30492,4.45527,16.73947,7.7859,25.282,9.90529,8.56417,2.09775,17.58269,3.22239,27.12023,3.22239.82183,0,1.64367,0,2.46524-.06494-8.56417-.17292-16.69591-1.16794-24.37331-3.09276l-.10824-.12962Z"/><path class="tl" d="M894.51069,23.54092c-5.38508.52562-10.42406,1.46415-15.05225,2.8677-17.04202,5.50626-30.73202,13.58612-41.11278,24.36064-4.67149,4.68442-9.36436,10.89134-13.99255,18.57098l-3.02782,5.49332-1.23288,2.46537c-2.05445,4.67149-4.04422,10.94321-6.09867,18.9019-1.23262,5.27697-1.81659,11.37578-1.81659,18.27477,0,8.95371,1.23262,17.97196,3.63317,27.1201,4.69314,16.63123,13.99255,31.68348,28.05004,45.09232,8.30492,8.30466,19.50752,14.61955,33.50033,18.83696,5.08227,1.64367,9.88338,2.76831,14.44663,3.35201,4.58489.58397,9.73211.93007,15.39835.93007h5.21216c-5.66624,0-10.8351-.28116-15.39835-.93007-4.56325-.5837-9.36462-1.70835-14.44689-3.35201-13.99255-4.26044-25.19541-10.5323-33.50007-18.83696-13.99255-13.40884-23.35691-28.41779-28.05004-45.09232-2.4655-9.14814-3.63344-18.1664-3.63344-27.1201,0-6.89899.58397-12.9978,1.81685-18.27477,2.05445-7.89374,4.04422-14.23041,6.09867-18.9019l1.23288-2.46537,3.02756-5.49332c4.69314-7.73812,9.32133-13.88655,13.99281-18.57098,10.38076-10.77452,24.07076-18.85438,41.11278-24.36064,4.69287-1.40356,9.71046-2.40056,15.05225-2.8677,4.39033-.41092,9.71046-.64442,16.047-.7029h-.71359c-8.30466,0-15.16049.23364-20.54557.76138v-.05848Z"/><path class="tl" d="M1118.82497,202.49715v-22.72991l-27.70394-171.91877h-5.21216l31.38067,194.64868h1.53543Z"/><path class="tl" d="M30.10476,91.94038c1.81659-.17305,3.50355-.58397,5.2119-1.16781V30.97622c-1.64367-.35033-3.35201-.5276-5.2119-.5276v61.53506-.0433Z"/><path class="tl" d="M581.00705.88031c3.22239.40867,5.57965.58608,7.02875.58608,1.81659,0,3.17909.23351,3.97928.58384l14.94427,3.33921,3.97928,1.22839c2.05445.58608,3.56849,1.11382,4.56325,1.52262,9.53754,3.63119,18.68568,8.54912,27.40139,14.63922,14.64146,10.36584,25.30338,22.01843,31.96464,35.01609l-15.74446,8.60324,1.47048,2.05458,19.48587-10.65783c-6.66099-12.99766-17.38786-24.65024-31.96438-35.01609-8.71571-6.09009-17.86385-10.94968-27.40139-14.63922-.99475-.4088-2.5088-.93654-4.56325-1.52262l-3.97928-1.22839-14.94427-3.33921c-.82183-.40867-2.09775-.58384-3.97928-.58384-1.4058,0-3.74168-.17741-7.02875-.58608-3.26568-.41092-5.79613-.58608-7.61272-.58608-1.10299,0-2.27093,0-3.50355.05834,1.64367.05834,3.50355.23575,5.9041.52774Z"/><path class="tl" d="M722.94449,7.84847h-5.21216v94.10519h5.21216V7.84847Z"/><path class="tl" d="M991.52899,30.74271c-11.59199-10.3636-26.16851-18.44558-43.85944-24.35839-12.75967-4.27562-25.17349-6.38432-37.11159-6.38432-.88678,0-1.70861.11682-2.53044.11682,11.18121.2941,22.66496,2.34432,34.49508,6.2675,17.66902,5.91282,32.26718,13.99479,43.85918,24.35839,17.25823,15.2253,28.91517,33.61253,35.01411,55.09886,2.61677,9.94846,3.97928,21.73502,3.97928,35.31678,0,19.68044-6.3368,39.16631-18.8586,58.5009-2.63842,4.02257-5.96905,8.54252-10.07822,13.40858-12.75993,13.99255-28.3312,24.65473-46.6061,31.96464-13.23566,5.14722-26.47132,7.85058-39.64204,8.08844.95172,0,1.88153.10798,2.8116.10798,13.99255,0,28.05004-2.7464,42.04259-8.19642,18.2749-7.30991,33.78123-17.97209,46.6061-31.96464,4.04422-4.86606,7.43953-9.32133,10.07822-13.40858,12.58675-19.26965,18.8586-38.77717,18.8586-58.5009,0-13.58176-1.36251-25.36833-3.97954-35.31678-6.09867-21.48633-17.75561-39.87356-35.01384-55.09886h-.06494Z"/><path class="tl" d="M773.83268,7.84847h-5.21216v219.30341h5.21216V7.84847Z"/><path class="tl" d="M722.94449,123.90502h-5.21216v103.22521h5.21216v-103.22521Z"/><path class="tl" d="M1070.40228,31.0347l-1.23262-.29198v196.38752h5.21216V55.33686l-3.97954-24.30216Z"/><path class="tl" d="M1148.08624,7.84847h-5.19051l.28116,219.30341h5.21216l-.30281-219.30341Z"/><path class="tl" d="M301.43592,30.74271c-11.59199-10.3636-26.19016-18.44558-43.85944-24.35839-12.75993-4.27562-25.17376-6.38432-37.17654-6.38432-.88678,0-1.70861.11682-2.53044.11682,11.18121.2941,22.66496,2.34432,34.49482,6.2675,17.69093,5.91282,32.26745,13.99479,43.85944,24.35839,17.25823,15.2253,28.91517,33.61253,35.01411,55.09886,2.63842,9.94846,3.97928,21.73502,3.97928,35.31678,0,19.68044-6.3368,39.16631-18.8586,58.5009-2.63842,4.02257-5.96905,8.54252-10.07822,13.40858-12.82488,13.99255-28.3312,24.65473-46.6061,31.96464-13.23566,5.14722-26.44967,7.85058-39.64204,8.08844.95172,0,1.88153.10798,2.8116.10798,13.99255,0,28.05004-2.7464,42.04259-8.19642,18.2749-7.30991,33.78123-17.97209,46.6061-31.96464,4.04422-4.86606,7.43953-9.32133,10.07795-13.40858,12.58701-19.26965,18.85887-38.77717,18.85887-58.5009,0-13.58176-1.34086-25.36833-3.97954-35.31678-6.09867-21.48633-17.75561-39.87356-35.01384-55.09886Z"/><path class="tl" d="M659.36132,167.24517l16.67426,9.94859-1.79494,2.4655-1.81659,2.44359-6.3801,7.91552c-8.32631,9.36462-16.86883,16.91239-25.60619,22.70826-8.71571,5.79613-17.02037,10.14316-25.00084,12.9545l-3.33036,1.23288-5.49332,1.51378-5.81751,1.51404-3.33063.95146-18.27464,2.0328c1.53543,0,3.0492.06494,4.62793.06494l18.85887-2.09775,3.33036-.95146,5.79613-1.51404,5.5147-1.51378,3.33063-1.23288c7.91552-2.87628,16.22018-7.15837,24.95754-12.9545,8.71571-5.79586,17.25823-13.34364,25.58454-22.70826l6.3801-7.91552,1.81659-2.44359,1.81659-2.4655-20.37238-12.17596-1.47075,2.22737Z"/><path class="tl" d="M69.37904,118.4117c-4.67122-5.10392-9.01825-8.73723-13.10577-10.96486l2.44385-1.81659,3.04947-2.44385c11.18094-9.32119,17.69067-21.216,19.50725-35.66276.41105-2.4655.58397-4.39679.58397-5.8026v-3.33921c0-15.04789-4.39033-27.22821-13.23566-36.53858-8.84533-9.31037-19.85336-13.99479-33.02434-13.99479h-5.2119c13.17072,0,24.17874,4.68442,33.02407,13.99479,8.8456,9.36871,13.23566,21.54903,13.23566,36.53858v3.33921c0,1.4058-.17292,3.3371-.5837,5.8026-1.81685,14.40347-8.32657,26.27662-19.50752,35.66276l-3.04947,2.44385-2.44385,1.81659c4.04422,2.22764,8.43455,5.92575,13.10604,10.96486,5.92575,6.48807,10.07795,12.34888,12.47851,17.4961,2.4655,5.14722,4.28235,12.82488,5.49332,23.01107v13.99255c-2.44385,22.55699-12.45712,38.60425-30.14779,48.14153-8.13174,4.04422-15.33367,6.09894-21.60526,6.09894h5.2119c6.27186,0,13.51682-2.05472,21.60526-6.09894,17.69093-9.53728,27.7042-25.58454,30.14805-48.14153v-13.99255c-1.21123-10.12125-3.02782-17.79891-5.49332-23.01107-2.4655-5.14722-6.6177-11.00802-12.47877-17.4961Z"/><path class="tl" d="M432.99233,195.81451c0,16.45805-8.19642,27.70394-24.65447,33.78123-3.74168,1.36251-7.61272,2.05445-11.52731,2.22764.99475,0,1.92483.17292,2.98452.17292,4.69314,0,9.25638-.82183,13.71139-2.44385,16.43666-6.09867,24.63308-17.34483,24.63308-33.80287V7.84847h-5.19051v187.90109l.0433.06494Z"/><path class="tl" d="M0,227.15188V7.84847h24.35192c13.17072,0,24.17874,4.68442,33.02434,13.99479,8.84533,9.36871,13.23566,21.54903,13.23566,36.53858v3.33921c0,1.4058-.17318,3.3371-.58397,5.8026-1.81659,14.40347-8.30466,26.27662-19.50752,35.66276l-3.02782,2.44385-2.4655,1.81659c4.04422,2.22764,8.43455,5.92575,13.10604,10.96486,5.92575,6.48807,10.07822,12.34888,12.47877,17.4961,2.4655,5.14722,4.28209,12.82488,5.5147,23.01107v13.99255c-2.46524,22.55699-12.47851,38.60425-30.16944,48.14153-8.13174,4.04422-15.33341,6.09894-21.60526,6.09894H0ZM24.00582,30.39239v61.548c6.50972-.58397,12.00304-3.87117,16.45805-9.73211,4.45527-5.9041,6.66126-13.86279,6.66126-24.05994,0-7.31849-1.62202-13.29189-4.84441-17.97631-2.22764-3.4559-4.86606-5.91493-7.91552-7.43742-3.04947-1.52262-6.48807-2.28387-10.35938-2.28387v-.05834ZM24.00582,125.72161v77.35951c7.30991,0,13.51682-2.8116,18.72898-8.3696,5.16886-5.57991,8.56417-13.53847,10.18619-23.89784.19483-1.4058.30281-3.63317.30281-6.68264,0-2.85464-.30281-5.96905-.92981-9.4293-1.81685-9.71046-5.34205-17.15026-10.48926-22.25418-5.14722-5.08227-11.11626-7.30991-17.79891-6.66099v-.06494Z"/><path class="tl" d="M101.99259,162.31444c-3.04947-6.89912-5.45002-14.10079-7.13699-21.60526-1.70861-7.48309-2.57348-14.51184-2.57348-21.02156v-7.89374c0-12.37053,2.85464-25.43327,8.54252-39.12301,5.68789-13.70281,13.51682-25.82478,23.42185-36.42413C147.36581,12.0635,175.71866,0,209.19708,0c12.00304,0,24.37357,2.1087,37.19845,6.38432,17.66902,5.91282,32.24554,13.99479,43.83753,24.35839,17.27988,15.2253,28.93682,33.61253,35.01411,55.09886,2.63842,9.94846,4.00093,21.73502,4.00093,35.31678,0,19.68044-6.33654,39.16631-18.8586,58.5009-2.63842,4.02257-5.96905,8.54252-10.07822,13.40858-12.75993,13.99255-28.3312,24.65473-46.60584,31.96464-13.99281,5.5147-28.05031,8.19642-42.04286,8.19642s-28.3312-2.33561-41.74005-7.02875c-16.86883-5.9041-31.16419-14.81438-42.92937-26.81716-10.35911-10.35938-18.66404-22.70826-24.93589-37.1768l-.06468.10824ZM115.98514,114.47559c0,8.95371,1.23262,17.97196,3.63344,27.1201,4.69287,16.63123,13.99255,31.68348,28.05004,45.09232,8.30466,8.30466,19.50752,14.61955,33.50007,18.83696,5.08227,1.64367,9.88338,2.76831,14.44663,3.35201,4.58489.58397,9.73211.93007,15.39835.93007h5.51497c2.4655-.41078,4.28209-.58397,5.49332-.58397,12.19761-1.23262,23.14069-4.69287,32.9161-10.35938,11.18121-5.92575,20.61051-13.5815,28.3312-23.14069,6.68264-7.89388,12.00304-16.91213,15.98232-27.09858,4.00093-10.1429,5.92575-21.3241,5.92575-33.50007,0-25.17363-9.73211-47.18981-29.21798-66.11124-5.68789-5.2705-12.06772-9.83811-19.20471-13.70281-7.09369-3.8647-13.94925-6.90981-20.43733-9.13521-6.50972-2.22539-12.30585-3.3371-17.32318-3.3371-8.32631,0-15.18213.23364-20.56721.76138-5.38508.5276-10.42406,1.46415-15.05225,2.86982-17.02037,5.50401-30.73202,13.58388-41.09113,24.35839-4.69314,4.68442-9.36462,10.89134-13.99281,18.55593l-3.0492,5.51484-1.23288,2.4655c-2.05445,4.67136-4.04422,10.94321-6.07703,18.9019-1.23288,5.27697-1.81685,11.35413-1.81685,18.27477l-.12962-.06494Z"/><path class="tl" d="M362.68322,224.10241c-9.14814-7.74234-13.71139-16.45805-13.71139-26.19016V7.84847h24.07076v181.8238l.28116,3.63344c1.64367,10.5323,6.09867,15.8094,13.40858,15.8094,2.22764,0,4.86606-.58397,7.91552-1.81685,5.49332-2.4655,8.19668-9.14814,8.19668-20.09122V7.79012h24.07076v187.91614c0,16.4364-8.19668,27.68255-24.65473,33.78123-4.45527,1.64367-9.01852,2.4655-13.71139,2.4655-10.77016,0-19.37789-2.63842-25.86597-7.91552v.06494Z"/><path class="tl" d="M636.7613,22.77967c14.6412,10.3636,25.28173,22.01618,31.96438,35.01609l-19.50752,10.65783-5.14695-7.32073c-7.30991-9.54401-16.32842-17.5654-27.09858-24.06641-7.7426-4.45091-15.70116-7.9047-23.89784-10.3636-8.19668-2.46114-17.08531-3.63119-26.64424-3.63119-7.72096,0-15.57154.93641-23.59504,2.75313-8.0235,1.81447-15.4633,4.56536-22.36215,8.19655-9.36462,4.85959-17.56104,11.24391-24.65473,19.20682-12.00304,13.17085-19.78868,28.22323-23.42185,45.09219-.58397,3.63331-1.10299,7.02875-1.51404,10.07808-.41078,3.02782-.58397,6.20691-.58397,9.40765,0,16.04726,4.2607,31.16445,12.75993,45.39487,8.54279,14.23068,20.02654,25.34694,34.43014,33.50007,8.30466,4.43362,16.73921,7.7859,25.28173,9.88365,8.56444,2.1194,17.58269,3.22239,27.12023,3.22239,7.72069,0,15.05225-.93007,22.08099-2.87628,7.02875-1.92483,14.27371-4.90935,21.77845-8.95357,10.77016-5.9041,20.78343-14.4036,30.14779-25.58481l3.97928-4.56325,1.81685-2.76804,20.37238,12.19735-1.81659,2.44385-1.81659,2.4655-6.3801,7.91552c-8.30466,9.36436-16.84719,16.91213-25.58454,22.70826-8.71571,5.79613-17.04202,10.1429-24.93589,12.93285l-3.33036,1.23288-5.51497,1.53543-5.79613,1.51378-3.33036.93007-18.8586,2.1194c-9.94859,0-18.72898-.58397-26.3417-1.70861-7.61272-1.10299-15.39835-3.22239-23.31387-6.25021-4.28209-1.6434-8.60747-3.56823-13.10577-5.79586-4.45527-2.22764-8.32657-4.45527-11.59199-6.68264l-4.58489-3.33063c-10.35938-7.91552-19.20471-16.93378-26.51462-27.12023-10.35938-14.40333-16.73921-30.27768-19.20471-47.49262l-1.53569-21.30259c0-6.92051.60562-13.53834,1.81685-19.98325,1.23262-6.37997,3.22239-12.93285,6.09867-19.61563,4.69314-10.94321,11.18121-21.42363,19.50752-31.37843,13.17072-15.2253,30.32097-26.81954,51.45051-34.72424,8.56417-3.04498,16.45805-5.03475,23.7896-5.91493,7.30991-.93641,13.40858-1.34521,18.25299-1.34521,1.81659,0,4.39033.17516,7.61272.58608,3.22239.4088,5.558.58397,7.02875.58397,1.81659,0,3.15744.23575,3.97928.58608l14.94427,3.3371,3.97928,1.23051c2.03307.58608,3.56849,1.11171,4.56325,1.52262,9.53754,3.63106,18.68568,8.54899,27.40139,14.63922l-.17292-.11682Z"/><path class="tl" d="M711.69834,227.15188h-24.04912V7.84847h24.04912v94.10519h26.81742V7.84847h24.07076v219.30341h-24.07076v-103.24686h-26.81742v103.24686Z"/><path class="tl" d="M792.10732,162.31444c-3.04947-6.89912-5.45002-14.10079-7.15863-21.60526-1.6867-7.48309-2.57348-14.51184-2.57348-21.02156v-7.89374c0-12.37053,2.87628-25.43327,8.54252-39.12301,5.68789-13.70281,13.53847-25.82478,23.42212-36.42413C837.48054,12.0635,865.81174,0,899.3118,0c12.00304,0,24.35192,2.1087,37.1768,6.38432,17.69067,5.91282,32.26718,13.99479,43.85944,24.35839,17.27988,15.2253,28.91517,33.61253,35.01384,55.09886,2.63842,9.94846,3.97928,21.73502,3.97928,35.31678,0,19.68044-6.31489,39.16631-18.8586,58.5009-2.63842,4.02257-5.96905,8.54252-10.05657,13.40858-12.78132,13.99255-28.35285,24.65473-46.62749,31.96464-13.99255,5.5147-28.02866,8.19642-42.02121,8.19642-14.0142,0-28.35285-2.33561-41.76143-7.02875-16.8691-5.9041-31.14281-14.81438-42.90798-26.81716-10.38076-10.35938-18.68542-22.70826-24.95728-37.1768l-.0433.10824ZM806.09986,114.47559c0,8.95371,1.23288,17.97196,3.63344,27.1201,4.67122,16.63123,13.99255,31.68348,28.02839,45.09232,8.32631,8.30466,19.50752,14.61955,33.50007,18.83696,5.10392,1.64367,9.90503,2.76831,14.46854,3.35201,4.56325.58397,9.71046.93007,15.39835.93007h5.49306c2.4655-.41078,4.28209-.58397,5.51497-.58397,12.17596-1.23262,23.11904-4.69287,32.89445-10.35938,11.18121-5.92575,20.61051-13.5815,28.35285-23.14069,6.66126-7.89388,12.00304-16.91213,15.98232-27.09858,3.97954-10.1429,5.9041-21.3241,5.9041-33.50007,0-25.17363-9.71046-47.18981-29.21798-66.11124-5.66624-5.2705-12.04607-9.83811-19.20444-13.70281-7.07204-3.8647-13.92787-6.90981-20.43759-9.13521-6.48807-2.22539-12.28394-3.3371-17.32318-3.3371-8.30466,0-15.16049.23364-20.54557.76138-5.38508.5276-10.42406,1.46415-15.05225,2.86982-17.04202,5.50401-30.75341,13.58388-41.11278,24.35839-4.67149,4.68442-9.36436,10.89134-13.99255,18.55593l-3.04947,5.51484-1.21123,2.4655c-2.05445,4.67136-4.04422,10.94321-6.09867,18.9019-1.23262,5.27697-1.81659,11.35413-1.81659,18.27477l-.10824-.06494Z"/><path class="tl" d="M1063.13567,227.15188h-24.07076V7.84847h40.80997l31.40232,194.64868h1.51404V7.84847h24.07076l.28116,219.30341h-40.80997l-31.96464-196.17341-1.23288-.29198v196.4654Z"/><path class="tl" d="M373.99431,373.22013l-11.83012-47.44958h-11.05132l-11.98113,47.44958-12.52207-47.44958h-10.59724l17.51775,64.0589h11.35413l11.74353-46.62749,11.59199,46.62749h11.22424l17.90715-64.0589h-10.68357l-12.69499,47.44958h.02165Z"/><path class="tl" d="M433.9224,325.81384h-10.20784v64.03726h10.20784v-64.03726Z"/><path class="tl" d="M506.65372,373.28481l-30.10476-47.47097h-11.22424v64.03726h10.1429l-.21622-47.88202,30.36427,47.88202h10.85675v-64.03726h-10.03492l.21622,47.47097Z"/><path class="tl" d="M547.98272,389.82945h43.85944v-9.77541h-33.73793v-17.99347h29.54217v-9.77541h-29.54217v-16.73921h33.73793v-9.77541h-43.85944v64.0589Z"/><path class="tl" d="M700.75526,358.29751c-2.09775-1.25453-4.49857-2.29258-7.09369-3.07112-2.48715-.77854-5.03898-1.36251-7.56942-1.90318-2.98452-.71359-5.9041-1.42745-8.67241-2.22764-2.4655-.64865-4.41197-1.6867-5.83916-2.91958-1.18959-1.03805-1.81685-2.55183-1.81685-4.62819,0-1.81659.47599-3.33036,1.42745-4.58489,1.03805-1.34086,2.37891-2.44385,4.21741-3.20074,3.54658-1.51378,8.73709-1.55707,12.63004-.43243,1.68696.49738,3.15744,1.25427,4.41197,2.16269,1.12438.95146,1.98951,2.0761,2.59512,3.4819s.86513,3.07085.75689,5.03898l-.15127,3.15744,10.1429-1.79494v-2.05445c.08659-4.58489-.97311-8.58608-3.15744-11.59199-2.18434-3.02782-5.03898-5.3204-8.60747-6.79088-6.94242-2.8116-16.80415-2.8116-23.31387.17292-3.41696,1.55707-6.14197,3.80636-8.11009,6.61796-1.98977,2.85464-2.98452,6.29324-2.98452,10.1429,0,3.4819.82183,6.40148,2.33561,8.73736,1.51404,2.22764,3.5252,4.10917,5.96905,5.45002,2.27093,1.29756,4.86606,2.33561,7.63436,3.07085,2.68172.77854,5.32014,1.36251,7.95882,1.90318,2.70336.60562,5.32014,1.25453,7.82893,1.94647,2.18434.64891,3.91433,1.57872,5.12557,2.76831,1.03805.97311,1.57872,2.40056,1.57872,4.34703,0,1.81659-.47573,3.37366-1.4491,4.60654-1.03805,1.36251-2.59512,2.40056-4.71452,3.15744-4.49857,1.64367-12.08963,1.73026-17.08531-.17292-2.29258-.86513-3.93625-2.18434-4.99594-3.93625-1.08135-1.81659-1.44883-4.28209-1.14603-7.37485l.38914-3.07085-10.07822,1.08135-.17292,2.0761c-.30281,3.63344,0,6.87747,1.03805,9.71046,1.03805,2.87655,2.70336,5.3204,4.8877,7.20193,2.16269,1.90318,4.95265,3.37366,8.13174,4.28209,3.07112.95146,6.68264,1.34086,10.57559,1.34086,5.08227,0,9.53754-.75689,13.12742-2.20599,3.72003-1.51378,6.68291-3.71977,8.60773-6.57467,1.98951-2.87628,2.98426-6.22856,2.98426-10.0996,0-3.33063-.64865-6.14223-2.01116-8.34822-1.31921-2.22737-3.1358-4.02257-5.42838-5.38508l.08659-.06468v-.0433l-.0433.02165Z"/><path class="tl" d="M776.31956,352.32846h-29.28266v-26.55791h-10.09986v64.0589h10.09986v-27.74723h29.28266v27.74723h10.14316v-64.0589h-10.14316v26.55791Z"/><path class="tl" d="M864.21137,333.85899c-2.4222-2.98452-5.42838-5.25519-8.82369-6.83418-3.41722-1.51378-7.26661-2.33561-11.50567-2.33561-5.29849,0-10.1429,1.29756-14.31701,3.84965-4.23879,2.55183-7.56942,6.40148-9.94833,11.41907-2.31396,4.88744-3.5252,10.96473-3.5252,18.12336,0,4.67122.56232,9.0832,1.68696,12.93285,1.12464,4.00093,2.85464,7.54777,5.14722,10.46735,2.33561,3.04947,5.29849,5.36343,8.78039,7.0071,3.46052,1.62202,7.59107,2.48715,12.24091,2.48715,4.62819,0,8.71571-.82183,12.19761-2.48715,3.46025-1.64367,6.40148-4.02257,8.73736-6.9638,2.29232-2.94123,4.02257-6.44478,5.14722-10.46735,1.08135-3.89295,1.64367-8.21833,1.64367-12.75993,0-5.06089-.67056-9.64578-1.90318-13.79798-1.29783-4.17411-3.15771-7.7426-5.53662-10.70548l-.0433.06494h.0433-.02165ZM826.25629,357.9947c0-5.10392.77854-9.49425,2.22737-13.04109,1.4058-3.41696,3.39557-5.9041,6.01235-7.69904,2.66007-1.73026,5.68789-2.59539,9.32133-2.59539,3.63317,0,6.83391.86513,9.45095,2.68172,2.59512,1.7952,4.56325,4.32538,5.96905,7.7426,1.44883,3.54658,2.18434,7.87196,2.18434,12.97615,0,5.10392-.69221,9.34271-2.11966,12.80296-1.34086,3.37393-3.24404,5.81778-5.83916,7.56942-2.55209,1.75191-5.83916,2.61704-9.71046,2.61704-2.8116,0-5.36343-.49764-7.48283-1.47075-2.11966-.97311-3.84965-2.31396-5.3204-4.19549-1.47048-1.81685-2.66007-4.28235-3.41696-7.09369-.82183-2.94123-1.25427-6.40175-1.25427-10.25114l-.02165-.0433Z"/><path class="tl" d="M945.98285,338.59542c-1.18959-2.8549-2.98452-5.23381-5.29875-7.11534-2.29232-1.90318-5.06062-3.30898-8.21807-4.28209-3.07112-.93007-6.59631-1.42745-10.46762-1.42745h-20.74014v64.0589h10.14316v-19.76703h8.58582c5.96905,0,11.02967-.86513,15.0306-2.5088,4.19576-1.72999,7.3965-4.28209,9.55919-7.56942,2.1194-3.33036,3.20074-7.35294,3.20074-11.93783,0-3.46052-.60562-6.61796-1.81659-9.38627v-.04303l.02165-.02165ZM933.65535,357.10792c-2.87628,2.0761-7.26661,3.09276-13.08412,3.09276h-9.16979v-24.63308h10.20784c5.57965,0,9.75376,1.03805,12.30559,3.0925,2.4655,1.94647,3.63344,4.8877,3.63344,8.95357,0,4.49857-1.31921,7.56942-3.89295,9.4726v.02165Z"/><path class="tl" d="M225.74172,326.46249h11.91645l26.36308,65.03227h-12.43547l-20.26441-52.48856-20.17781,52.48856h-12.17596l26.77413-65.03227ZM212.96014,367.16449h36.26837v10.12125h-36.26837v-10.12125Z"/>  </g>
  <style>.tl{fill:#c1965c;}</style>
</svg>
